<?xml version="1.0" encoding="utf-8"?>
<!-- Generator: Adobe Illustrator 16.0.0, SVG Export Plug-In . SVG Version: 6.00 Build 0)  -->
<!DOCTYPE svg PUBLIC "-//W3C//DTD SVG 1.1//EN" "http://www.w3.org/Graphics/SVG/1.1/DTD/svg11.dtd">
<svg version="1.1" id="Layer_1" xmlns="http://www.w3.org/2000/svg" xmlns:xlink="http://www.w3.org/1999/xlink" x="0px" y="0px"
	 width="100px" height="65px" viewBox="0 0 100 65" style="enable-background:new 0 0 100 65;" xml:space="preserve">
<g>
	<g>
		<g>
			<path style="fill:#FFFFFF;" d="M78.855,24.263l-6.539-17c-1.239-3.214-4.849-4.814-8.063-3.576
				c-0.045,0.018-0.093,0.036-0.14,0.056L31.438,17.287c-3.112,1.277-4.641,4.799-3.448,7.943l0.898,2.398h-2.061
				c-3.362,0.003-6.086,2.729-6.09,6.09v21.925c0.004,3.362,2.729,6.087,6.09,6.09h41.415c3.361-0.003,6.086-2.728,6.091-6.09
				V33.718c-0.002-0.33-0.032-0.659-0.088-0.986l1.131-0.458C78.516,30.987,80.058,27.435,78.855,24.263z M26.827,29.577h41.415
				c2.187,0.006,3.991,1.714,4.117,3.897H22.71C22.836,31.292,24.64,29.583,26.827,29.577z M36.621,23.707l6.513-3.257l1.339,3.348
				l-6.513,3.257L36.621,23.707z M72.383,55.643c-0.002,2.286-1.854,4.14-4.141,4.142H26.827c-2.286-0.002-4.139-1.855-4.142-4.142
				V43.219h49.697V55.643z M72.383,41.271H22.686v-5.848h49.697V41.271z M74.646,30.474l-1.019,0.412
				c-1.052-2-3.124-3.254-5.385-3.257H41.173l4.975-2.488c0.454-0.226,0.658-0.763,0.469-1.234l-2.067-5.164
				c-0.2-0.5-0.767-0.743-1.266-0.543c-0.026,0.011-0.05,0.021-0.074,0.034l-8.263,4.133c-0.453,0.228-0.657,0.764-0.468,1.234
				l1.612,4.028h-5.122l-1.154-3.077c-0.818-2.161,0.233-4.58,2.37-5.458L64.859,5.549c2.185-0.906,4.689,0.13,5.596,2.315
				c0.014,0.034,0.028,0.068,0.04,0.103l6.54,17C77.861,27.146,76.802,29.588,74.646,30.474z"/>
			<path style="fill:#FFFFFF;" d="M55.79,57.045c1.816,1.056,4.058,1.056,5.874,0c2.792,1.621,6.371,0.673,7.992-2.119
				c1.622-2.792,0.675-6.371-2.117-7.992c-0.896-0.52-1.915-0.795-2.95-0.791c-1.028,0.001-2.037,0.273-2.925,0.791
				c-2.791-1.622-6.37-0.674-7.992,2.117C52.05,51.844,52.998,55.423,55.79,57.045z M63.294,48.329
				c0.414-0.153,0.852-0.233,1.295-0.238c2.152,0,3.896,1.745,3.896,3.898c0,2.152-1.744,3.897-3.896,3.897
				c-0.443-0.006-0.881-0.084-1.295-0.238C65.019,53.514,65.019,50.463,63.294,48.329z M61.664,49.438c1.3,1.453,1.3,3.649,0,5.103
				C60.365,53.087,60.365,50.89,61.664,49.438z M58.741,48.091c0.441,0.005,0.879,0.085,1.294,0.238
				c-1.725,2.134-1.725,5.185,0,7.319c-0.415,0.154-0.853,0.232-1.294,0.238c-2.153,0-3.897-1.745-3.897-3.897
				C54.844,49.836,56.588,48.091,58.741,48.091z"/>
			
				<rect x="65.911" y="17.115" transform="matrix(0.4064 0.9137 -0.9137 0.4064 59.9912 -47.9345)" style="fill:#FFFFFF;" width="1.949" height="10.173"/>
			
				<rect x="55.363" y="18.129" transform="matrix(-0.908 0.419 -0.419 -0.908 127.7458 10.1504)" style="fill:#FFFFFF;" width="14.79" height="1.947"/>
		</g>
	</g>
</g>
</svg>
