<?xml version="1.0" encoding="utf-8"?>
<!-- Generator: Adobe Illustrator 16.0.0, SVG Export Plug-In . SVG Version: 6.00 Build 0)  -->
<!DOCTYPE svg PUBLIC "-//W3C//DTD SVG 1.1//EN" "http://www.w3.org/Graphics/SVG/1.1/DTD/svg11.dtd">
<svg version="1.1" id="Layer_1" xmlns="http://www.w3.org/2000/svg" xmlns:xlink="http://www.w3.org/1999/xlink" x="0px" y="0px"
	 width="100px" height="65px" viewBox="0 0 100 65" style="enable-background:new 0 0 100 65;" xml:space="preserve">
<g>
	<path style="fill-rule:evenodd;clip-rule:evenodd;fill:#FFFFFF;" d="M1.718,23.262c0.002-0.674,0.456-1.012,1.013-1.012h9.872
		c3.03,0.344,5.145,1.886,5.353,5.941v5.485c0,0.814-0.048,1.502-0.283,2.293c-0.785,2.641-2.672,3.951-5.492,4.137H7.947
		c0,2.236,0,4.473,0,6.712c0,0.504-0.424,0.756-0.937,0.756c-1.483,0-2.964,0-4.445,0c-0.542,0-0.94-0.302-0.938-0.906L1.718,23.262
		L1.718,23.262z M7.991,28.473h2.628c0.59,0,1.076,0.483,1.076,1.077v3.17c0,0.592-0.486,1.079-1.076,1.079H7.991V28.473
		L7.991,28.473z"/>
	<path style="fill-rule:evenodd;clip-rule:evenodd;fill:#FFFFFF;" d="M22.82,22.279h6.9c4.038,0.235,6.224,2.355,6.167,6.753v16.284
		c0,1.264-1.275,2.22-2.365,2.22h-9.044c-2.745,0-4.557-2.138-5.009-4.235c-0.432-2.014-0.11-4.45-0.11-6.507
		c0-3.175,2.104-6.324,5.608-6.324h3.682c1.071-0.057,1.022-2.397,0-2.315h-5.754c-0.583,0-0.992-0.311-1.047-0.904
		c0-1.422,0-2.842,0-4.265C21.848,22.442,22.297,22.279,22.82,22.279L22.82,22.279z M26.624,36.359h2.105
		c0.496,0,0.903,0.406,0.903,0.904v3.666c0,0.499-0.407,0.907-0.903,0.907h-2.105c-0.497,0-0.901-0.408-0.901-0.907v-3.666
		C25.723,36.766,26.127,36.359,26.624,36.359L26.624,36.359z"/>
	<path style="fill-rule:evenodd;clip-rule:evenodd;fill:#FFFFFF;" d="M38.005,23.428v10.286c0.25,3.226,3.144,5.639,6.293,5.639
		h2.914c1.205,0,1.131,2.024,0,2.024h-6.303c-0.682,0-0.931,0.357-0.931,0.96v4.528c0,0.456,0.368,0.799,0.851,0.799h5.838
		c4.87,0,7.643-2.337,7.641-7.573V23.028c0-0.556-0.352-0.773-0.69-0.773h-4.893c-0.453,0-0.717,0.491-0.717,0.85v9.35
		c0,0.403-0.224,0.638-0.584,0.638h-2.316c-0.532,0-0.823-0.289-0.823-0.798v-9.029c0-0.598-0.241-1.038-0.902-1.038
		c-1.568,0-3.139,0-4.708,0C38.14,22.229,38.005,22.759,38.005,23.428L38.005,23.428z"/>
	<path style="fill-rule:evenodd;clip-rule:evenodd;fill:#FFFFFF;" d="M56.77,27.655v-4.447c0-0.478,0.393-0.869,0.868-0.869h1.071
		c2.758-0.575,3.412-2.192,5.1-4.01c1.036-1.123,1.946-1.418,2.615-0.228v4.238h2.528c0.478,0,0.868,0.391,0.868,0.869v4.447
		c0,0.476-0.393,0.868-0.868,0.868h-2.53v18.226c0,0.479-0.39,0.868-0.865,0.868h-4.45c-0.478,0-0.866-0.389-0.866-0.868V28.522
		h-2.603C57.163,28.522,56.77,28.132,56.77,27.655L56.77,27.655z"/>
	<path style="fill-rule:evenodd;clip-rule:evenodd;fill:#FFFFFF;" d="M88.275,46.457c0,0.593-0.489,1.079-1.086,1.079h-4.164
		c-0.6,0-1.088-0.486-1.088-1.079V33.502V29.73c0.032-1.809-3.611-2.089-3.611,0v16.727c0,0.593-0.487,1.079-1.086,1.079h-4.162
		c-0.599,0-1.09-0.486-1.09-1.079V23.266c0-0.597,0.491-1.083,1.09-1.083h4.162c0.599,0,1.086,0.485,1.086,1.083v0.319
		c2.437-2.33,6.656-1.961,8.902,0.459c4.227-4.849,11.468-0.53,11.133,4.788c0,5.878-0.052,11.699-0.052,17.625
		c0,0.593-0.491,1.079-1.086,1.079h-4.166c-0.598,0-1.086-0.486-1.086-1.079c0-5.613,0-11.097,0-16.617
		c-0.238-2.32-3.742-1.777-3.738,0C88.233,35.363,88.275,40.886,88.275,46.457L88.275,46.457z"/>
</g>
</svg>
