<?xml version="1.0" encoding="utf-8"?>
<!-- Generator: Adobe Illustrator 16.0.0, SVG Export Plug-In . SVG Version: 6.00 Build 0)  -->
<!DOCTYPE svg PUBLIC "-//W3C//DTD SVG 1.1//EN" "http://www.w3.org/Graphics/SVG/1.1/DTD/svg11.dtd">
<svg version="1.1" id="Layer_1" xmlns="http://www.w3.org/2000/svg" xmlns:xlink="http://www.w3.org/1999/xlink" x="0px" y="0px"
	 width="100px" height="65px" viewBox="0 0 100 65" style="enable-background:new 0 0 100 65;" xml:space="preserve">
<path style="fill:#FFFFFF;" d="M49.999,1.388c-17.183,0-31.112,13.93-31.112,31.113c0,17.183,13.929,31.112,31.112,31.112
	c17.182,0,31.114-13.929,31.114-31.112C81.113,15.318,67.181,1.388,49.999,1.388z M64.227,24.071v1.063
	c0,0.313-0.08,0.548-0.236,0.703c-0.155,0.158-0.392,0.236-0.703,0.236h-1.632h-1.633c-0.183,0-0.316,0.048-0.407,0.147
	c-0.092,0.1-0.136,0.249-0.136,0.445v12.659V51.98c0,0.314-0.08,0.55-0.232,0.704c-0.16,0.157-0.395,0.236-0.708,0.236h-1.311H55.92
	c-0.313,0-0.549-0.079-0.707-0.236c-0.154-0.154-0.231-0.39-0.231-0.704v-4.574v-4.572h-0.096h-0.102
	c-0.396,0.691-0.975,1.209-1.732,1.557c-0.757,0.347-1.692,0.519-2.817,0.519h-0.718H48.8c-1.137,0-2.161-0.168-3.071-0.5
	c-0.913-0.332-1.708-0.834-2.392-1.503c-0.684-0.664-1.195-1.456-1.54-2.363c-0.34-0.912-0.513-1.947-0.513-3.098v-5.39v-5.389
	c0-0.179-0.037-0.32-0.111-0.42c-0.073-0.099-0.184-0.156-0.333-0.172h-1.435h-1.434c-0.313,0-0.547-0.084-0.704-0.247
	c-0.156-0.166-0.235-0.41-0.235-0.743v-1.037v-1.039c0-0.297,0.079-0.52,0.235-0.666c0.157-0.149,0.391-0.223,0.704-0.223h7.281
	h7.284c-1.054-1.098-2.074-2.258-3.062-3.484c-0.985-1.228-1.936-2.521-2.851-3.882l-1.385-2.055l-1.382-2.05
	c-0.066-0.113-0.113-0.234-0.148-0.356c-0.031-0.125-0.052-0.251-0.052-0.383c0-0.246,0.064-0.433,0.188-0.557
	c0.121-0.122,0.309-0.184,0.554-0.184h1.506h1.51c0.296,0,0.552,0.062,0.768,0.184c0.211,0.124,0.386,0.311,0.519,0.557l3.535,5.686
	l3.534,5.685c0.183,0.281,0.38,0.492,0.596,0.629c0.214,0.14,0.445,0.211,0.693,0.211h0.123h0.123h2.989h2.992
	c0.313,0,0.548,0.073,0.703,0.223c0.158,0.146,0.236,0.369,0.236,0.666V24.071z M54.438,26.073h-4.055h-4.055
	c-0.184,0-0.319,0.049-0.408,0.147c-0.092,0.1-0.135,0.249-0.135,0.445v5.168v5.165c0,1.286,0.312,2.247,0.94,2.892
	c0.627,0.644,1.567,0.963,2.819,0.963h0.666h0.667c0.693,0,1.298-0.088,1.81-0.264c0.516-0.178,0.942-0.443,1.279-0.797
	c0.337-0.356,0.592-0.775,0.761-1.254c0.171-0.484,0.256-1.028,0.256-1.638v-5.118v-5.117c0-0.197-0.047-0.347-0.138-0.445
	C54.753,26.122,54.617,26.073,54.438,26.073z"/>
</svg>
