<?xml version="1.0" encoding="utf-8"?>
<!-- Generator: Adobe Illustrator 16.0.0, SVG Export Plug-In . SVG Version: 6.00 Build 0)  -->
<!DOCTYPE svg PUBLIC "-//W3C//DTD SVG 1.1//EN" "http://www.w3.org/Graphics/SVG/1.1/DTD/svg11.dtd">
<svg version="1.1" id="Layer_1" xmlns="http://www.w3.org/2000/svg" xmlns:xlink="http://www.w3.org/1999/xlink" x="0px" y="0px"
	 width="100px" height="65px" viewBox="0 0 100 65" style="enable-background:new 0 0 100 65;" xml:space="preserve">
<g>
	<polygon style="fill:#088B45;" points="94.441,21.308 99.27,30.14 89.12,38.966 	"/>
	<polygon style="fill:#F27921;" points="91.057,21.308 95.882,30.14 85.729,38.966 	"/>
	<g>
		<path style="fill:#FFFFFF;" d="M24.326,38.386c0.477-0.336,0.787-0.751,0.936-1.243l1.608-5.292
			c0.146-0.48,0.081-0.884-0.192-1.21c-0.273-0.326-0.678-0.49-1.211-0.49c0.533,0,1.038-0.167,1.513-0.502
			c0.474-0.335,0.783-0.743,0.928-1.225l1.606-5.285c0.156-0.514,0.104-0.938-0.159-1.273c-0.26-0.336-0.669-0.504-1.221-0.504
			H7.194L1.873,38.887h20.94C23.348,38.887,23.854,38.721,24.326,38.386 M9.963,24.786h10h3.131h0.66
			c0.378,0.085,0.694,0.313,0.878,0.617c0.065,0.212,0.105,0.436,0.105,0.667c0,0.125-0.013,0.246-0.031,0.362l-0.039,0.117
			l-0.132,0.442c-0.354,0.767-1.137,1.328-2.074,1.432h-0.637H8.858L9.963,24.786z M22.37,34.12
			c-0.373,0.718-1.121,1.237-2.014,1.341h-0.661H6.725L7.82,31.85h10.008h3.092h0.667c0.501,0.113,0.893,0.481,1.008,0.942
			c0.016,0.104,0.026,0.208,0.026,0.315c0,0.056-0.006,0.11-0.009,0.164c-0.002,0.022-0.002,0.047-0.005,0.067L22.37,34.12z"/>
		<polygon style="fill:#FFFFFF;" points="51.448,21.375 49.344,28.415 34.239,28.415 36.343,21.375 32.586,21.375 27.362,38.844 
			31.119,38.844 33.217,31.834 48.322,31.834 46.224,38.844 49.981,38.844 55.206,21.375 		"/>
		<polygon style="fill:#FFFFFF;" points="56.299,38.9 52.518,38.9 57.773,21.436 61.557,21.436 		"/>
		<polygon style="fill:#FFFFFF;" points="87.852,21.421 72.161,33.648 66.689,25.284 64.163,21.421 64.092,21.421 62.9,25.389 
			58.866,38.834 62.623,38.834 65.45,29.409 71.441,38.855 81.359,30.494 78.873,38.834 82.632,38.834 86.298,26.609 87.855,21.421 
					"/>
		<path style="fill:#FFFFFF;" d="M0.731,43.587l0.673-2.583h0.75c0.214,0,0.369,0.01,0.468,0.03
			c0.096,0.021,0.176,0.052,0.235,0.098c0.076,0.06,0.128,0.136,0.153,0.231c0.026,0.095,0.026,0.199-0.006,0.316
			c-0.035,0.137-0.102,0.254-0.2,0.344c-0.099,0.095-0.221,0.158-0.368,0.193c0.166,0.023,0.284,0.094,0.354,0.206
			s0.083,0.257,0.04,0.431c-0.029,0.104-0.074,0.205-0.144,0.297c-0.065,0.096-0.145,0.175-0.242,0.24
			c-0.099,0.072-0.212,0.123-0.341,0.154c-0.127,0.029-0.334,0.042-0.619,0.042H0.731z M1.296,43.236h0.167
			c0.169,0,0.299-0.006,0.385-0.02c0.086-0.012,0.158-0.029,0.216-0.06c0.068-0.035,0.128-0.08,0.174-0.138
			c0.047-0.06,0.081-0.123,0.099-0.191c0.021-0.082,0.021-0.154-0.003-0.217c-0.023-0.06-0.069-0.105-0.131-0.141
			c-0.043-0.021-0.092-0.035-0.146-0.047c-0.058-0.007-0.134-0.013-0.23-0.013h-0.15H1.51L1.296,43.236z M1.592,42.094h0.187
			c0.23,0,0.401-0.027,0.512-0.082c0.108-0.056,0.181-0.146,0.214-0.275c0.039-0.143,0.02-0.241-0.054-0.297
			c-0.074-0.059-0.232-0.088-0.479-0.088H1.786L1.592,42.094z"/>
		<polygon style="fill:#FFFFFF;" points="4.388,43.587 5.061,41.004 5.545,41.004 5.295,41.956 6.762,41.956 7.009,41.004 
			7.492,41.004 6.818,43.587 6.335,43.587 6.661,42.332 5.199,42.332 4.871,43.587 		"/>
		<path style="fill:#FFFFFF;" d="M10.724,43.587l-0.163-0.666H9.379l-0.515,0.666h-0.51l2.142-2.687l0.739,2.687H10.724z
			 M9.651,42.57h0.83l-0.151-0.588c-0.008-0.039-0.016-0.082-0.021-0.129c-0.007-0.049-0.012-0.104-0.016-0.164
			c-0.03,0.056-0.062,0.108-0.092,0.158c-0.032,0.047-0.063,0.094-0.091,0.135L9.651,42.57z"/>
		<path style="fill:#FFFFFF;" d="M13.527,42.432l-0.302,1.155h-0.453l0.673-2.583h0.674c0.197,0,0.35,0.01,0.453,0.03
			c0.102,0.022,0.186,0.062,0.249,0.11c0.076,0.064,0.126,0.145,0.152,0.244c0.022,0.098,0.021,0.207-0.011,0.325
			c-0.053,0.206-0.154,0.368-0.298,0.485c-0.146,0.117-0.334,0.188-0.564,0.212l0.719,1.175h-0.548l-0.689-1.154H13.527
			L13.527,42.432z M13.643,42.104h0.089c0.254,0,0.432-0.023,0.528-0.076c0.099-0.051,0.164-0.145,0.198-0.274
			c0.036-0.144,0.019-0.245-0.057-0.302c-0.074-0.059-0.234-0.088-0.478-0.088h-0.089L13.643,42.104z"/>
		<path style="fill:#FFFFFF;" d="M18.328,43.587l-0.165-0.666h-1.178l-0.52,0.666h-0.508l2.138-2.687l0.742,2.687H18.328z
			 M17.253,42.57h0.831l-0.151-0.588c-0.009-0.039-0.016-0.082-0.022-0.129c-0.006-0.049-0.01-0.104-0.015-0.164
			c-0.029,0.056-0.06,0.108-0.091,0.158c-0.032,0.047-0.063,0.094-0.091,0.135L17.253,42.57z"/>
		<polygon style="fill:#FFFFFF;" points="21.689,41.357 21.107,43.587 20.626,43.587 21.203,41.357 20.415,41.357 20.508,41.004 
			22.569,41.004 22.475,41.357 		"/>
		<polygon style="fill:#FFFFFF;" points="26.045,43.587 26.718,41.004 27.202,41.004 26.527,43.587 		"/>
		<path style="fill:#FFFFFF;" d="M28.481,43.587l0.701-2.687l1.479,1.578c0.037,0.045,0.077,0.095,0.117,0.144
			c0.039,0.052,0.079,0.108,0.122,0.173l0.465-1.791h0.448l-0.698,2.682l-1.51-1.605c-0.04-0.044-0.079-0.089-0.114-0.139
			c-0.037-0.047-0.068-0.098-0.098-0.15l-0.468,1.796H28.481z"/>
		<polygon style="fill:#FFFFFF;" points="34.623,41.357 34.044,43.587 33.56,43.587 34.14,41.357 33.35,41.357 33.445,41.004 
			35.502,41.004 35.413,41.357 		"/>
		<polygon style="fill:#FFFFFF;" points="36.456,43.587 37.13,41.004 38.792,41.004 38.699,41.357 37.522,41.357 37.354,42.009 
			38.529,42.009 38.433,42.376 37.257,42.376 37.04,43.212 38.217,43.212 38.118,43.587 		"/>
		<path style="fill:#FFFFFF;" d="M40.687,42.432l-0.303,1.155h-0.453l0.673-2.583h0.676c0.198,0,0.347,0.01,0.45,0.03
			c0.104,0.022,0.188,0.062,0.252,0.11c0.076,0.064,0.125,0.145,0.151,0.244c0.021,0.098,0.019,0.207-0.013,0.325
			c-0.052,0.206-0.153,0.368-0.299,0.485c-0.145,0.117-0.332,0.188-0.563,0.212l0.718,1.175h-0.547l-0.688-1.154H40.687
			L40.687,42.432z M40.8,42.104h0.089c0.257,0,0.433-0.023,0.528-0.076c0.099-0.051,0.164-0.145,0.197-0.274
			c0.038-0.144,0.02-0.245-0.056-0.302c-0.075-0.059-0.233-0.088-0.477-0.088h-0.087L40.8,42.104z"/>
		<polygon style="fill:#FFFFFF;" points="43.52,43.587 44.194,41.004 45.852,41.004 45.761,41.357 44.583,41.357 44.418,42.004 
			45.594,42.004 45.497,42.373 44.32,42.373 44.005,43.587 		"/>
		<path style="fill:#FFFFFF;" d="M48.778,43.587l-0.165-0.666h-1.177l-0.519,0.666h-0.509l2.141-2.687l0.74,2.687H48.778z
			 M47.706,42.57h0.83l-0.15-0.588c-0.009-0.039-0.015-0.082-0.021-0.129c-0.008-0.049-0.014-0.104-0.016-0.164
			c-0.031,0.056-0.063,0.108-0.094,0.158c-0.031,0.047-0.06,0.094-0.091,0.135L47.706,42.57z"/>
		<path style="fill:#FFFFFF;" d="M53.652,41.631c-0.111-0.102-0.236-0.177-0.373-0.227c-0.141-0.053-0.295-0.076-0.465-0.076
			c-0.322,0-0.611,0.091-0.864,0.271c-0.248,0.182-0.413,0.416-0.487,0.703c-0.072,0.28-0.035,0.51,0.118,0.69
			c0.151,0.182,0.376,0.272,0.681,0.272c0.176,0,0.35-0.029,0.524-0.082c0.172-0.054,0.347-0.136,0.519-0.244l-0.119,0.474
			c-0.151,0.082-0.31,0.144-0.475,0.183c-0.164,0.04-0.333,0.059-0.513,0.059c-0.228,0-0.431-0.029-0.605-0.094
			c-0.179-0.066-0.319-0.162-0.437-0.287c-0.111-0.125-0.188-0.271-0.223-0.438c-0.031-0.167-0.021-0.347,0.024-0.535
			c0.05-0.188,0.135-0.368,0.256-0.532c0.122-0.166,0.272-0.313,0.454-0.44c0.18-0.126,0.375-0.224,0.582-0.288
			c0.209-0.066,0.423-0.098,0.643-0.098c0.178,0,0.34,0.021,0.487,0.065c0.146,0.043,0.281,0.111,0.407,0.199L53.652,41.631z"/>
		<polygon style="fill:#FFFFFF;" points="55.001,43.587 55.674,41.004 57.333,41.004 57.24,41.357 56.064,41.357 55.895,42.009 
			57.07,42.009 56.977,42.376 55.801,42.376 55.579,43.212 56.758,43.212 56.661,43.587 		"/>
		<polygon style="fill:#FFFFFF;" points="60.986,43.587 61.659,41.004 63.318,41.004 63.227,41.357 62.05,41.357 61.882,42.004 
			63.061,42.004 62.963,42.373 61.787,42.373 61.471,43.587 		"/>
		<path style="fill:#FFFFFF;" d="M67.814,42.3c-0.049,0.183-0.133,0.358-0.254,0.522c-0.123,0.162-0.274,0.308-0.463,0.436
			c-0.186,0.129-0.382,0.229-0.594,0.297c-0.21,0.067-0.421,0.1-0.632,0.1c-0.215,0-0.412-0.032-0.586-0.103
			c-0.177-0.067-0.324-0.165-0.44-0.294c-0.117-0.127-0.193-0.271-0.229-0.433c-0.037-0.164-0.03-0.339,0.017-0.524
			c0.049-0.185,0.137-0.359,0.256-0.523c0.121-0.163,0.273-0.31,0.459-0.438c0.188-0.129,0.383-0.229,0.594-0.294
			c0.211-0.067,0.422-0.101,0.638-0.101c0.214,0,0.407,0.033,0.584,0.101c0.174,0.065,0.319,0.165,0.438,0.294
			c0.117,0.131,0.195,0.276,0.229,0.441C67.869,41.943,67.863,42.118,67.814,42.3 M67.309,42.3c0.037-0.13,0.041-0.255,0.018-0.374
			c-0.024-0.117-0.074-0.222-0.153-0.313c-0.077-0.092-0.177-0.159-0.295-0.209c-0.12-0.047-0.253-0.073-0.399-0.073
			s-0.291,0.022-0.437,0.073c-0.146,0.048-0.28,0.117-0.405,0.209c-0.129,0.09-0.234,0.195-0.318,0.311
			c-0.086,0.12-0.144,0.244-0.178,0.376c-0.035,0.132-0.041,0.255-0.018,0.37c0.023,0.119,0.076,0.223,0.154,0.313
			c0.08,0.092,0.18,0.162,0.299,0.209c0.117,0.048,0.251,0.074,0.4,0.074c0.144,0,0.287-0.026,0.432-0.074
			c0.146-0.047,0.275-0.117,0.404-0.209c0.127-0.09,0.234-0.196,0.321-0.314C67.219,42.553,67.275,42.432,67.309,42.3"/>
		<path style="fill:#FFFFFF;" d="M70.047,42.432l-0.301,1.155h-0.452l0.672-2.583h0.673c0.199,0,0.352,0.01,0.453,0.03
			c0.104,0.022,0.188,0.062,0.251,0.11c0.076,0.064,0.125,0.145,0.15,0.244c0.024,0.098,0.022,0.207-0.009,0.325
			c-0.055,0.206-0.154,0.368-0.301,0.485c-0.144,0.117-0.334,0.188-0.564,0.212l0.719,1.175H70.79l-0.688-1.154H70.047
			L70.047,42.432z M70.161,42.104h0.088c0.257,0,0.435-0.023,0.53-0.076c0.098-0.051,0.164-0.145,0.199-0.274
			c0.035-0.144,0.019-0.245-0.059-0.302c-0.074-0.059-0.234-0.088-0.479-0.088h-0.088L70.161,42.104z"/>
		<path style="fill:#FFFFFF;" d="M78.152,42.311c0-0.02,0.01-0.074,0.02-0.166c0.008-0.076,0.018-0.137,0.021-0.187
			c-0.028,0.058-0.063,0.116-0.1,0.174c-0.039,0.062-0.082,0.12-0.131,0.183l-1.139,1.377l-0.413-1.405
			c-0.017-0.058-0.031-0.113-0.039-0.167c-0.011-0.055-0.017-0.109-0.021-0.16c-0.017,0.055-0.037,0.109-0.06,0.168
			c-0.022,0.061-0.054,0.123-0.089,0.188l-0.648,1.272h-0.447l1.408-2.694l0.448,1.631c0.011,0.026,0.019,0.069,0.03,0.129
			c0.012,0.062,0.027,0.138,0.042,0.225c0.05-0.076,0.116-0.169,0.21-0.284c0.023-0.028,0.041-0.052,0.053-0.069l1.283-1.631
			l0.02,2.694h-0.449V42.311L78.152,42.311z"/>
		<path style="fill:#FFFFFF;" d="M83.631,42.3c-0.049,0.183-0.132,0.358-0.255,0.522c-0.12,0.162-0.274,0.308-0.46,0.436
			c-0.188,0.129-0.385,0.229-0.593,0.297c-0.212,0.067-0.423,0.1-0.636,0.1s-0.41-0.032-0.586-0.103
			c-0.176-0.067-0.322-0.165-0.438-0.294c-0.118-0.127-0.192-0.271-0.229-0.433c-0.039-0.164-0.033-0.339,0.018-0.524
			c0.048-0.185,0.132-0.359,0.253-0.523c0.12-0.163,0.272-0.31,0.46-0.438c0.186-0.129,0.384-0.229,0.592-0.294
			c0.21-0.067,0.424-0.101,0.641-0.101c0.213,0,0.406,0.033,0.58,0.101c0.176,0.065,0.322,0.165,0.44,0.294
			c0.117,0.131,0.194,0.276,0.231,0.441C83.686,41.943,83.68,42.118,83.631,42.3 M83.126,42.3c0.035-0.13,0.041-0.255,0.017-0.374
			c-0.022-0.117-0.078-0.222-0.154-0.313c-0.08-0.092-0.176-0.159-0.297-0.209c-0.118-0.047-0.252-0.073-0.396-0.073
			c-0.146,0-0.294,0.022-0.438,0.073c-0.144,0.048-0.278,0.117-0.407,0.209c-0.125,0.09-0.231,0.195-0.315,0.311
			c-0.086,0.12-0.146,0.244-0.18,0.376c-0.034,0.132-0.038,0.255-0.018,0.37c0.027,0.119,0.076,0.223,0.156,0.313
			c0.08,0.092,0.18,0.162,0.297,0.209c0.118,0.048,0.252,0.074,0.398,0.074s0.292-0.026,0.436-0.074
			c0.143-0.047,0.278-0.117,0.406-0.209c0.127-0.09,0.232-0.196,0.319-0.314C83.033,42.553,83.093,42.432,83.126,42.3"/>
		<path style="fill:#FFFFFF;" d="M85.109,43.587l0.697-2.687l1.479,1.578c0.04,0.045,0.08,0.095,0.116,0.144
			c0.043,0.052,0.082,0.108,0.125,0.173l0.466-1.791h0.446l-0.699,2.682l-1.51-1.605c-0.039-0.044-0.076-0.089-0.112-0.139
			c-0.036-0.047-0.069-0.098-0.101-0.15l-0.468,1.796H85.109z"/>
		<polygon style="fill:#FFFFFF;" points="89.709,43.587 90.381,41.004 92.044,41.004 91.951,41.357 90.771,41.357 90.604,42.009 
			91.782,42.009 91.686,42.376 90.508,42.376 90.29,43.212 91.471,43.212 91.372,43.587 		"/>
		<path style="fill:#FFFFFF;" d="M93.823,43.587l0.308-1.183l-0.638-1.4h0.508l0.396,0.875c0.011,0.021,0.021,0.053,0.035,0.088
			c0.012,0.037,0.023,0.076,0.034,0.118c0.032-0.041,0.062-0.077,0.093-0.117c0.031-0.036,0.063-0.069,0.092-0.101l0.865-0.864H96
			l-1.391,1.399l-0.308,1.184L93.823,43.587L93.823,43.587z"/>
	</g>
</g>
</svg>
