<?xml version="1.0" encoding="utf-8"?>
<!-- Generator: Adobe Illustrator 16.0.0, SVG Export Plug-In . SVG Version: 6.00 Build 0)  -->
<!DOCTYPE svg PUBLIC "-//W3C//DTD SVG 1.1//EN" "http://www.w3.org/Graphics/SVG/1.1/DTD/svg11.dtd">
<svg version="1.1" id="Layer_1" xmlns="http://www.w3.org/2000/svg" xmlns:xlink="http://www.w3.org/1999/xlink" x="0px" y="0px"
	 width="100px" height="65px" viewBox="0 0 100 65" style="enable-background:new 0 0 100 65;" xml:space="preserve">
<path style="fill:#FFFFFF;" d="M72.938,21.621L72.938,21.621h-54.8c-0.517,0-0.937,0.419-0.938,0.938v0.002v26.301
	c0,0.52,0.419,0.939,0.937,0.939c0.002,0,0.002,0,0.002,0H55.4c0.52,0,0.941-0.42,0.941-0.939c0-0.517-0.422-0.938-0.941-0.938
	H19.077V23.5h52.919v2.348c0,0.52,0.422,0.939,0.938,0.939c0.002,0,0.002,0,0.004,0c0.516,0.002,0.938-0.418,0.939-0.938
	c0,0,0,0,0-0.002v-3.286C73.877,22.044,73.457,21.621,72.938,21.621z M66.568,17.261L22.727,7.397
	c-0.243-0.054-0.496-0.01-0.708,0.123c-0.21,0.135-0.36,0.345-0.414,0.59l-2.192,9.863c-0.112,0.507,0.206,1.007,0.712,1.122
	c0.507,0.111,1.01-0.208,1.122-0.715l1.986-8.945l42.92,9.658c0.068,0.017,0.139,0.022,0.209,0.022c0.518,0,0.938-0.422,0.936-0.941
	C67.299,17.737,66.994,17.358,66.568,17.261z M61.244,11.825L34.94,0.865c-0.458-0.188-0.983,0.007-1.205,0.449l-2.192,4.384
	c-0.248,0.459-0.077,1.031,0.38,1.277c0.459,0.248,1.03,0.077,1.278-0.379c0.01-0.02,0.019-0.038,0.027-0.057v0.001l1.799-3.598
	L60.52,13.564c0.477,0.199,1.031-0.027,1.229-0.507C61.951,12.577,61.723,12.027,61.244,11.825z M61.908,26.006h-8.699
	c-0.52,0-0.938,0.42-0.938,0.939s0.418,0.939,0.938,0.939h8.699c0.518,0,0.938-0.42,0.938-0.939S62.426,26.006,61.908,26.006z
	 M44.441,26.067c-5.328,0-9.645,4.318-9.645,9.646c0.006,5.323,4.319,9.639,9.645,9.645c5.326,0,9.645-4.318,9.645-9.645
	C54.086,30.386,49.767,26.067,44.441,26.067z M44.441,43.604c-4.359,0-7.891-3.534-7.891-7.891c0.004-4.356,3.534-7.887,7.891-7.892
	c4.357,0,7.891,3.533,7.891,7.892C52.332,40.069,48.798,43.604,44.441,43.604z M70.742,29.137c-5.805,0-12.053,1.372-12.053,4.384
	v26.303c0,3.011,6.248,4.383,12.053,4.383c5.811,0,12.059-1.372,12.059-4.383V33.521C82.801,30.509,76.553,29.137,70.742,29.137z
	 M80.609,59.807c-0.166,0.607-3.455,2.208-9.867,2.208c-6.408,0-9.695-1.601-9.863-2.191v-1.723
	c2.334,1.173,6.188,1.723,9.863,1.723c3.682,0,7.535-0.554,9.867-1.723V59.807z M80.609,55.425
	c-0.166,0.605-3.455,2.206-9.867,2.206c-6.408,0-9.695-1.601-9.863-2.192v-1.723c2.334,1.176,6.188,1.723,9.863,1.723
	c3.682,0,7.535-0.553,9.867-1.723V55.425z M80.609,51.037c-0.166,0.609-3.455,2.212-9.867,2.212c-6.408,0-9.695-1.603-9.863-2.195
	v-1.722c2.334,1.176,6.188,1.722,9.863,1.722c3.682,0,7.535-0.552,9.867-1.722V51.037z M80.609,46.656
	c-0.166,0.606-3.455,2.206-9.867,2.206c-6.408,0-9.695-1.6-9.863-2.189v-1.725c2.334,1.176,6.188,1.725,9.863,1.725
	c3.682,0,7.535-0.555,9.867-1.725V46.656z M80.609,42.272c-0.166,0.608-3.455,2.209-9.867,2.209c-6.408,0-9.695-1.601-9.863-2.192
	v-1.725c2.334,1.17,6.188,1.725,9.863,1.725c3.682,0,7.535-0.555,9.867-1.725V42.272z M80.609,37.889
	c-0.166,0.608-3.455,2.208-9.867,2.208c-6.408,0-9.695-1.6-9.863-2.191v-1.723c2.334,1.168,6.188,1.723,9.863,1.723
	c3.682,0,7.535-0.555,9.867-1.725V37.889z M70.742,35.713c-6.398,0-9.686-1.595-9.863-2.173v-0.007
	c0.178-0.61,3.465-2.204,9.863-2.204c6.359,0,9.645,1.57,9.867,2.191C80.387,34.14,77.102,35.713,70.742,35.713z M35.674,43.54
	H27.39l-3.929-4.297v-7.122l4.338-4.236h7.875c0.519,0,0.939-0.42,0.939-0.939s-0.42-0.939-0.939-0.939h-8.255
	c-0.247-0.002-0.481,0.096-0.658,0.266l-4.896,4.775c-0.182,0.214-0.284,0.486-0.282,0.767v7.795c0,0.235,0.087,0.461,0.245,0.634
	l4.453,4.87c0.179,0.195,0.43,0.306,0.694,0.306h8.7c0.519,0,0.939-0.42,0.939-0.939S36.192,43.54,35.674,43.54z M47.271,33.059
	h0.009c0.447,0.013,0.821-0.34,0.834-0.788c0-0.003,0-0.006,0-0.01c0.021-0.439-0.32-0.811-0.76-0.829
	c-0.011,0-0.021-0.001-0.032-0.001l-3.707-0.033v0.004l-1.533-0.015c-0.464-0.005-0.848,0.363-0.86,0.827
	c-0.009,0.458,0.355,0.835,0.813,0.844c0.001,0,0.004,0,0.005,0l1.496,0.017c0.373,0.003,0.73,0.156,0.992,0.424
	c0.049,0.053,0.096,0.108,0.137,0.166l-2.639-0.027c-0.462-0.005-0.839,0.365-0.844,0.826s0.364,0.839,0.825,0.844l2.638,0.028
	c-0.042,0.058-0.089,0.112-0.14,0.163c-0.271,0.258-0.633,0.396-1.005,0.382l-1.499-0.038h-0.009
	c-0.475,0.014-0.848,0.409-0.833,0.883c0.006,0.22,0.097,0.43,0.253,0.585l3.709,3.587c0.331,0.32,0.858,0.312,1.178-0.02
	c0.32-0.33,0.313-0.857-0.018-1.179l0,0l-2.25-2.171c0.62-0.104,1.192-0.396,1.641-0.838c0.377-0.357,0.653-0.808,0.802-1.305
	l0.772,0.039h0.01c0.464-0.016,0.832-0.393,0.835-0.857c0.006-0.463-0.362-0.846-0.826-0.859l-0.773-0.016
	c-0.054-0.211-0.127-0.416-0.222-0.613L47.271,33.059z"/>
</svg>
