<?xml version="1.0" encoding="utf-8"?>
<!-- Generator: Adobe Illustrator 16.0.0, SVG Export Plug-In . SVG Version: 6.00 Build 0)  -->
<!DOCTYPE svg PUBLIC "-//W3C//DTD SVG 1.1//EN" "http://www.w3.org/Graphics/SVG/1.1/DTD/svg11.dtd">
<svg version="1.1" id="Layer_1" xmlns="http://www.w3.org/2000/svg" xmlns:xlink="http://www.w3.org/1999/xlink" x="0px" y="0px"
	 width="100px" height="65px" viewBox="0 0 100 65" style="enable-background:new 0 0 100 65;" xml:space="preserve">
<g>
	<path style="fill:#FFFFFF;" d="M30.488,16.748h16.374c0.549,0,0.995-0.446,0.995-0.996c0-0.549-0.446-0.996-0.995-0.996H30.488
		c-0.549,0-0.994,0.446-0.994,0.996C29.494,16.302,29.939,16.748,30.488,16.748z"/>
	<path style="fill:#FFFFFF;" d="M49.18,22.385H38.933c-0.55,0-0.995,0.445-0.995,0.995s0.445,0.996,0.995,0.996H49.18
		c0.549,0,0.994-0.446,0.994-0.996S49.729,22.385,49.18,22.385L49.18,22.385z"/>
	<path style="fill:#FFFFFF;" d="M30.488,24.375h4.457c0.55,0,0.995-0.446,0.995-0.996s-0.445-0.995-0.995-0.995h-4.457
		c-0.549,0-0.994,0.445-0.994,0.995S29.939,24.375,30.488,24.375z"/>
	<path style="fill:#FFFFFF;" d="M57.346,15.752c0-0.549-0.446-0.996-0.994-0.996h-5.545c-0.548,0-0.993,0.446-0.993,0.996
		c0,0.55,0.445,0.996,0.993,0.996h5.545C56.899,16.748,57.346,16.302,57.346,15.752z"/>
	<path style="fill:#FFFFFF;" d="M84.413,23.214H65.588V19.4h10.533c0.55,0,1.073-0.446,1.073-0.994V7.627
		c-0.004-3.753-3.046-6.795-6.798-6.799c-0.112,0-0.331,0.003-0.331,0.009V0.828H30.248c-4.171-0.003-7.57,3.346-7.628,7.517
		l-0.335,38.083h-8.356c-0.578,0.027-1.042,0.488-1.072,1.065v6.166c0,5.647,4.477,10.27,9.949,10.502v0.011h31.837v-0.018
		c0.166,0.011,0.412,0.018,0.607,0.018c5.684,0,10.338-4.718,10.338-10.513v-6.235h18.825c1.489-0.021,2.696-1.215,2.73-2.705
		V25.925C87.11,24.435,85.903,23.236,84.413,23.214z M53.98,30.179h31.173v1.491H53.98V30.179z M85.153,25.925v2.263H53.98v-2.263
		c0-0.365,0.219-0.722,0.585-0.722h29.848C84.806,25.225,85.123,25.533,85.153,25.925z M75.203,7.627v9.783h-9.615V7.627
		c0-2.655,2.151-4.809,4.809-4.809C73.052,2.818,75.203,4.972,75.203,7.627z M23.241,62.181c-4.586,0-8.395-3.823-8.395-8.521
		v-5.241h30.013v5.241c0.003,3.364,1.605,6.528,4.314,8.521H23.241z M63.597,53.659c0,4.7-3.785,8.521-8.377,8.521
		c-4.586,0-8.37-3.823-8.37-8.521v-6.166c0-0.55-0.416-1.065-0.966-1.065H24.274L24.61,8.364c0.044-3.079,2.557-5.552,5.638-5.545
		h35.27c-1.259,1.282-1.95,3.014-1.921,4.809v15.587h-9.031c-1.462,0-2.575,1.249-2.575,2.711v18.793
		c0,1.463,1.113,2.705,2.575,2.705h9.031V53.659z M84.413,45.434H54.565c-0.366,0-0.585-0.35-0.585-0.715V33.66h31.173v11.059
		C85.12,45.108,84.805,45.416,84.413,45.434z"/>
	<path style="fill:#FFFFFF;" d="M79.608,35.857c-0.572,0-1.137,0.121-1.659,0.355c-2.044-0.918-4.443-0.004-5.36,2.041
		c-0.916,2.044-0.003,4.444,2.041,5.361c1.057,0.473,2.265,0.473,3.319,0c2.045,0.916,4.446,0.002,5.36-2.043
		c0.918-2.045,0.002-4.443-2.043-5.36C80.746,35.979,80.18,35.857,79.608,35.857z M74.226,39.914c0-1.142,0.925-2.065,2.066-2.065
		c1.143,0,2.066,0.924,2.066,2.065c0,1.141-0.924,2.066-2.066,2.066C75.151,41.979,74.227,41.055,74.226,39.914z M79.787,41.971
		c0.748-1.27,0.748-2.844,0-4.115c1.137,0.1,1.979,1.1,1.879,2.236C81.582,41.092,80.787,41.885,79.787,41.971z"/>
	<path style="fill:#FFFFFF;" d="M36.116,33.163h0.01c0.535,0.015,0.98-0.406,0.995-0.939c0-0.004,0.001-0.008,0.001-0.012
		c0.022-0.523-0.384-0.966-0.906-0.988c-0.014,0-0.026-0.002-0.039-0.002l-4.417-0.039v0.005l-1.826-0.018
		c-0.554-0.006-1.011,0.433-1.025,0.985c-0.011,0.545,0.423,0.996,0.968,1.006c0.002,0,0.004,0,0.006,0l1.782,0.02
		c0.446,0.004,0.873,0.186,1.183,0.506c0.06,0.063,0.113,0.129,0.163,0.197l-3.144-0.033c-0.551-0.006-1,0.436-1.007,0.984
		c-0.006,0.55,0.436,1,0.984,1.006l3.143,0.033c-0.051,0.069-0.106,0.134-0.167,0.194c-0.321,0.308-0.753,0.472-1.197,0.456
		l-1.786-0.046h-0.011c-0.564,0.017-1.009,0.487-0.993,1.052c0.008,0.262,0.116,0.512,0.303,0.697l4.42,4.273
		c0.394,0.383,1.022,0.372,1.404-0.021c0.382-0.395,0.371-1.023-0.022-1.405l0,0l-2.681-2.587c0.738-0.125,1.421-0.473,1.955-0.998
		c0.449-0.426,0.777-0.963,0.954-1.555l0.923,0.047h0.01c0.553-0.02,0.992-0.469,0.996-1.021c0.007-0.553-0.433-1.009-0.985-1.024
		l-0.922-0.02c-0.063-0.251-0.151-0.495-0.263-0.729L36.116,33.163z"/>
	<path style="fill:#FFFFFF;" d="M47.724,33.163h0.011c0.533,0.015,0.979-0.406,0.994-0.939c0-0.004,0-0.008,0-0.012
		c0.024-0.523-0.382-0.966-0.905-0.988c-0.013,0-0.026-0.002-0.039-0.002l-4.417-0.039v0.005l-1.827-0.018
		c-0.553-0.006-1.01,0.433-1.025,0.985c-0.01,0.545,0.424,0.996,0.969,1.006c0.001,0,0.004,0,0.006,0l1.782,0.02
		c0.445,0.004,0.871,0.186,1.183,0.506c0.059,0.063,0.114,0.129,0.163,0.197l-3.145-0.033c-0.55-0.006-0.999,0.436-1.006,0.984
		c-0.006,0.55,0.435,1,0.984,1.006l3.143,0.033c-0.05,0.069-0.106,0.134-0.167,0.194c-0.321,0.308-0.753,0.472-1.196,0.456
		l-1.787-0.046h-0.011c-0.564,0.017-1.01,0.487-0.992,1.052c0.007,0.262,0.115,0.512,0.302,0.697l4.42,4.273
		c0.394,0.383,1.022,0.372,1.403-0.021c0.382-0.395,0.372-1.023-0.021-1.405l0,0l-2.681-2.587c0.738-0.125,1.421-0.473,1.954-0.998
		c0.45-0.426,0.779-0.963,0.956-1.555l0.921,0.047h0.011c0.553-0.02,0.992-0.469,0.995-1.021c0.007-0.553-0.432-1.009-0.984-1.024
		l-0.922-0.02c-0.063-0.251-0.151-0.495-0.264-0.729L47.724,33.163z"/>
</g>
</svg>
