<?xml version="1.0" encoding="utf-8"?>
<!-- Generator: Adobe Illustrator 16.0.0, SVG Export Plug-In . SVG Version: 6.00 Build 0)  -->
<!DOCTYPE svg PUBLIC "-//W3C//DTD SVG 1.1//EN" "http://www.w3.org/Graphics/SVG/1.1/DTD/svg11.dtd">
<svg version="1.1" id="Layer_1" xmlns="http://www.w3.org/2000/svg" xmlns:xlink="http://www.w3.org/1999/xlink" x="0px" y="0px"
	 width="100px" height="65px" viewBox="0 0 100 65" style="enable-background:new 0 0 100 65;" xml:space="preserve">
<path style="fill:#FFFFFF;" d="M79.482,13.938H20.517c-1.808,0-3.275,1.466-3.275,3.276v10.918c0,0.604,0.488,1.092,1.092,1.092
	c1.81,0,3.275,1.468,3.275,3.276c0,1.81-1.466,3.275-3.275,3.275c-0.603,0-1.092,0.489-1.092,1.093v10.919
	c0,1.809,1.467,3.275,3.275,3.275h58.965c1.809,0,3.275-1.467,3.275-3.275V36.868c0-0.604-0.488-1.093-1.092-1.093
	c-1.81,0-3.275-1.466-3.275-3.275c0-1.808,1.466-3.276,3.275-3.276c0.604,0,1.092-0.488,1.092-1.092V17.214
	C82.758,15.404,81.291,13.938,79.482,13.938z M80.574,27.149C78.029,27.667,76.2,29.903,76.2,32.5s1.829,4.834,4.374,5.352v9.937
	c0,0.603-0.489,1.092-1.092,1.092H20.517c-0.602,0-1.092-0.488-1.092-1.092v-9.937c2.545-0.518,4.374-2.755,4.374-5.352
	c0-2.596-1.828-4.833-4.374-5.351v-9.936c0-0.604,0.489-1.093,1.092-1.093h58.965c0.602,0,1.092,0.488,1.092,1.093V27.149z
	 M53.275,25.949h-2.423l-0.885-3.541c-0.143-0.567-0.706-0.921-1.278-0.805l-5.241,1.048l-5.242-1.048
	c-0.571-0.115-1.131,0.24-1.273,0.805l-0.89,3.541H33.62c-0.603,0-1.092,0.489-1.092,1.092v15.286c0,0.604,0.489,1.093,1.092,1.093
	h19.655c0.602,0,1.091-0.488,1.091-1.093V27.041C54.367,26.438,53.878,25.949,53.275,25.949z M40.172,41.236h-5.46v-3.277h5.46
	V41.236z M40.172,35.775h-5.46v-2.183h5.46V35.775z M40.172,31.409h-5.46v-3.277h5.46V31.409z M38.295,25.949l0.5-2.001l3.561,0.713
	v1.289H38.295z M44.541,32.5v8.736h-2.184V28.132h2.184V32.5z M44.541,25.949V24.66l3.561-0.713l0.5,2.001H44.541z M52.184,41.236
	h-5.46v-3.277h5.46V41.236z M52.184,35.775h-5.46v-2.183h5.46V35.775z M52.184,31.409h-5.46v-3.277h5.46V31.409z M63.104,22.672
	h2.184v2.185h-2.184V22.672L63.104,22.672z M63.104,27.041h2.184v2.183h-2.184V27.041L63.104,27.041z M63.104,31.409h2.184v2.184
	h-2.184V31.409L63.104,31.409z M63.104,35.775h2.184v2.184h-2.184V35.775L63.104,35.775z M63.104,40.145h2.184v2.183h-2.184V40.145
	L63.104,40.145z M63.104,44.511h2.184v2.185h-2.184V44.511L63.104,44.511z M63.104,18.306h2.184v2.183h-2.184V18.306L63.104,18.306z
	"/>
</svg>
