<?xml version="1.0" encoding="utf-8"?>
<!-- Generator: Adobe Illustrator 16.0.0, SVG Export Plug-In . SVG Version: 6.00 Build 0)  -->
<!DOCTYPE svg PUBLIC "-//W3C//DTD SVG 1.1//EN" "http://www.w3.org/Graphics/SVG/1.1/DTD/svg11.dtd">
<svg version="1.1" id="Layer_1" xmlns="http://www.w3.org/2000/svg" xmlns:xlink="http://www.w3.org/1999/xlink" x="0px" y="0px"
	 width="100px" height="65px" viewBox="0 0 100 65" style="enable-background:new 0 0 100 65;" xml:space="preserve">
<g>
	<path style="fill:#FFFFFF;stroke:#FFFFFF;stroke-width:0.0938;stroke-miterlimit:10;" d="M86.881,20.683
		c0.66-1.351,1.288-2.717,1.962-4.068c0.177,1.383,0.37,2.75,0.563,4.133c1.334-0.451,2.637-0.981,3.987-1.367
		c-0.948,1.158-1.864,2.348-2.781,3.538c0.997,0.789,1.994,1.544,2.975,2.332c-1.335,0.145-2.669,0.208-4.005,0.321
		c-0.048,1.415-0.145,2.847-0.224,4.278c-0.771-1.029-1.48-2.091-2.22-3.136c-1.109,1.013-2.235,2.026-3.312,3.071
		c0.417-1.447,0.835-2.895,1.236-4.342c-1.286-0.161-2.589-0.338-3.874-0.515c1.253-0.708,2.523-1.431,3.778-2.155
		c-0.515-1.238-1.045-2.46-1.543-3.699C84.566,19.638,85.739,20.121,86.881,20.683L86.881,20.683z"/>
	<path style="fill:#FFFFFF;stroke:#FFFFFF;stroke-width:0.0938;stroke-miterlimit:10;" d="M74.482,39.306
		c3.394-2.895,6.448-6.175,9.328-9.568c-1.303,4.486-3.828,8.619-7.237,11.804c-0.804,0.643-1.544,1.399-2.444,1.945
		c-2.942,1.994-6.416,3.28-9.987,3.313l0.081-0.065c2.814-1.639,5.517-3.457,8.04-5.516C73.004,40.592,73.791,39.997,74.482,39.306
		L74.482,39.306z"/>
	<path style="fill:#FFFFFF;stroke:#FFFFFF;stroke-width:0.0938;stroke-miterlimit:10;" d="M7.665,34.771
		c1.479-0.401,3.023-0.563,4.552-0.547c1.688-0.016,3.393,0.097,5.049,0.386c-0.241,0.644-0.482,1.271-0.691,1.914
		c-2.396-0.177-4.873-0.338-7.252,0.209c-0.724,0.193-1.657,0.482-1.85,1.334c-0.032,0.645,0.563,1.014,1.109,1.176
		c1.705,0.465,3.538,0.401,5.146,1.157c0.756,0.337,1.399,0.995,1.528,1.833c0.209,1.302-0.162,2.734-1.077,3.715
		c-1.046,1.125-2.59,1.624-4.053,1.896c-3.039,0.484-6.175,0.226-9.134-0.529c0.161-0.676,0.354-1.352,0.515-2.026
		c2.556,0.321,5.178,0.725,7.735,0.192c0.964-0.209,2.058-0.724,2.235-1.801c0.193-0.707-0.435-1.271-1.045-1.447
		c-1.625-0.498-3.361-0.386-4.953-0.981c-0.692-0.257-1.367-0.724-1.624-1.431c-0.483-1.238-0.033-2.701,0.932-3.57
		C5.623,35.526,6.62,35.061,7.665,34.771L7.665,34.771z"/>
	<path style="fill:#FFFFFF;stroke:#FFFFFF;stroke-width:0.0938;stroke-miterlimit:10;" d="M67.295,34.224
		c1.044,0,2.106,0.017,3.152,0c1.285,1.737,2.669,3.41,4.114,5.001l-0.079,0.081c-0.691,0.691-1.479,1.286-2.22,1.913
		C70.463,39,68.807,36.652,67.295,34.224L67.295,34.224z"/>
	<path style="fill:#FFFFFF;stroke:#FFFFFF;stroke-width:0.0938;stroke-miterlimit:10;" d="M49.074,28.708
		c-0.336,1.752-0.691,3.521-1.029,5.29c-2.766-0.08-5.676-0.273-8.266,0.9c-2.171,0.901-3.923,2.799-4.535,5.082
		c-0.579,1.866-0.515,4.07,0.724,5.66c1.206,1.514,3.167,2.139,5.033,2.235c2.107,0.097,4.374-0.225,6.095-1.526
		c1.625-1.19,2.525-3.152,2.911-5.083c0.82-4.261,1.625-8.522,2.427-12.8C51.325,28.547,50.2,28.612,49.074,28.708z M46.453,41.395
		c-0.192,1.078-0.595,2.189-1.43,2.928c-1.029,0.949-2.525,1.158-3.86,0.998c-0.933-0.08-1.929-0.531-2.364-1.415
		c-0.531-1.013-0.354-2.22-0.08-3.281c0.37-1.495,1.303-2.894,2.702-3.603c1.866-0.964,4.036-0.948,6.078-0.724
		C47.129,38.003,46.807,39.707,46.453,41.395z"/>
	<path style="fill:#FFFFFF;stroke:#FFFFFF;stroke-width:0.0938;stroke-miterlimit:10;" d="M65.654,35.27
		c-1.11-0.949-2.654-1.174-4.068-1.207c-2.687-0.064-5.501,0.725-7.463,2.621c-1.543,1.416-2.46,3.458-2.557,5.549
		c-0.111,1.302,0.226,2.653,1.062,3.666c1.014,1.336,2.654,2.074,4.278,2.333c2.476,0.417,5.146,0,7.235-1.432l0.081-0.065
		c-2.411,0.258-5.033,0.322-7.236-0.852c-1.399-0.771-2.075-2.43-1.914-3.972c2.782,0.497,5.741,0.61,8.427-0.402
		c1.126-0.45,2.235-1.174,2.799-2.284C66.908,37.955,66.764,36.234,65.654,35.27z M61.73,39.691
		c-1.994,0.659-4.149,0.499-6.175,0.161c0.578-1.335,1.591-2.525,2.927-3.136c1.142-0.516,2.476-0.725,3.714-0.402
		c0.58,0.145,1.11,0.627,1.143,1.27C63.483,38.598,62.599,39.386,61.73,39.691z"/>
	<path style="fill:#FFFFFF;stroke:#FFFFFF;stroke-width:0.0938;stroke-miterlimit:10;" d="M33.427,38.518
		c-0.192-1.432-1.094-2.718-2.332-3.426c-1.673-0.98-3.714-1.125-5.596-0.932c-2.541,0.257-5.034,1.431-6.674,3.424
		c-1.319,1.625-2.042,3.764-1.833,5.854c0.145,1.481,1.045,2.832,2.316,3.57c1.64,0.982,3.618,1.127,5.467,0.982
		c2.815-0.242,5.613-1.625,7.237-3.988C33.089,42.424,33.685,40.432,33.427,38.518z M29.761,40.142
		c-0.146,1.189-0.579,2.38-1.335,3.329c-1.045,1.351-2.766,2.17-4.471,2.105c-0.932,0-1.929-0.224-2.588-0.916
		c-0.466-0.482-0.691-1.143-0.724-1.8c-0.113-2.767,1.721-5.661,4.519-6.305c1.222-0.289,2.637-0.177,3.634,0.644
		C29.616,37.923,29.889,39.097,29.761,40.142z"/>
	<path style="fill:#FFFFFF;stroke:#FFFFFF;stroke-width:0.0938;stroke-miterlimit:10;" d="M98.911,38.34
		c-0.259-1.56-1.385-2.91-2.815-3.553c-1.801-0.853-3.86-0.9-5.789-0.627c-2.831,0.418-5.532,2.041-6.979,4.551
		c-0.901,1.592-1.367,3.488-0.997,5.307c0.288,1.479,1.366,2.732,2.732,3.377c1.77,0.837,3.796,0.934,5.711,0.675
		c2.717-0.386,5.37-1.849,6.865-4.18C98.686,42.264,99.248,40.254,98.911,38.34z M91.609,45.271
		c-1.271,0.516-2.75,0.596-4.035,0.081c-0.886-0.337-1.513-1.222-1.593-2.172c-0.258-2.91,1.672-6.014,4.615-6.657
		c1.157-0.257,2.492-0.192,3.474,0.53c0.771,0.563,1.157,1.512,1.173,2.444C95.275,41.895,93.876,44.355,91.609,45.271z"/>
	<path style="fill:#FFFFFF;stroke:#FFFFFF;stroke-width:0.0938;stroke-miterlimit:10;" d="M74.129,43.486
		c0.9-0.546,1.641-1.303,2.444-1.945c1.979,2.171,3.988,4.31,5.998,6.449c-1.398-0.033-2.814,0.016-4.213-0.018
		c-0.369-0.225-0.612-0.563-0.916-0.852C76.284,45.947,75.159,44.757,74.129,43.486L74.129,43.486z"/>
</g>
</svg>
