<?xml version="1.0" encoding="utf-8"?>
<!-- Generator: Adobe Illustrator 16.0.0, SVG Export Plug-In . SVG Version: 6.00 Build 0)  -->
<!DOCTYPE svg PUBLIC "-//W3C//DTD SVG 1.1//EN" "http://www.w3.org/Graphics/SVG/1.1/DTD/svg11.dtd">
<svg version="1.1" id="Layer_1" xmlns="http://www.w3.org/2000/svg" xmlns:xlink="http://www.w3.org/1999/xlink" x="0px" y="0px"
	 width="100px" height="65px" viewBox="0 0 100 65" style="enable-background:new 0 0 100 65;" xml:space="preserve">
<g>
	<path style="fill:#FFFFFF;" d="M26.131,33.561l2.66-11.689H24.33l0.499-2.167h11.914l-0.332,1.557
		c-0.082,0.443-0.305,0.61-0.749,0.61h-3.629l-2.661,11.689H26.131z"/>
	<path style="fill:#FFFFFF;" d="M37.63,23.87c0.11-0.471,0.414-0.694,0.886-0.694h2.356L38.49,33.561h-3.078L37.63,23.87z
		 M41.316,21.204c-0.111,0.472-0.362,0.667-0.833,0.667h-2.411l0.358-1.556c0.085-0.388,0.336-0.611,0.806-0.611h2.408
		L41.316,21.204z"/>
	<path style="fill:#FFFFFF;" d="M51.234,23.842c-0.252,1.054-0.805,1.36-1.747,1.36h-1.44c-1.413,0-2.411,0.361-2.91,1.472
		c-0.388,0.833-0.723,2.194-0.723,3.026c0,1.333,0.667,1.833,2.357,1.833h2.578l-0.473,2.026h-3.018
		c-3.243,0-4.905-1.389-4.628-4.165c0.111-1.166,0.333-1.944,0.638-2.776c0.913-2.388,2.936-3.444,6.51-3.444h3.023L51.234,23.842z"
		/>
	<path style="fill:#FFFFFF;" d="M50.512,33.561l3.05-13.355c0.055-0.277,0.222-0.417,0.525-0.445l2.688-0.194l-1.634,7.108
		c2.27-0.639,3.601-1.693,4.571-3.499h3.491c-1.164,2.362-2.937,3.888-5.598,4.805c1.414,1.526,2.716,3.305,4.322,5.58h-3.824
		c-1.219-1.777-2.271-3.166-3.489-4.526l-1.025,4.526H50.512z"/>
	<path style="fill:#FFFFFF;" d="M69.438,23.038c3.325,0,4.266,1.444,4.266,2.72c0,0.64-0.111,1.25-0.306,1.777
		c-0.524,1.5-1.744,1.999-3.85,1.999H65.78c-0.167,1.499,0.581,2,1.996,2h4.129l-0.39,1.583c-0.054,0.25-0.194,0.443-0.554,0.443
		h-3.824c-2.741,0-4.405-1.195-4.405-3.997c0-1.14,0.249-2,0.582-2.972c0.804-2.304,3.047-3.553,5.652-3.553H69.438z M69.161,27.563
		c0.72,0,1.135-0.222,1.358-0.75c0.109-0.278,0.137-0.473,0.167-0.833c0.025-0.472-0.224-0.999-1.415-0.999h-0.443
		c-1.605,0-2.382,0.971-2.688,2.582H69.161z"/>
	<path style="fill:#FFFFFF;" d="M81.353,24.592c-0.084,0.445-0.332,0.61-0.832,0.61h-2.689l-1.024,4.526
		c-0.248,1.083,0.223,1.805,1.275,1.805h1.913l-0.442,2.026h-2.578c-2.494,0-3.796-1.471-3.188-4.082l1.829-7.969
		c0.057-0.277,0.195-0.444,0.525-0.472l2.689-0.195l-0.556,2.333h3.382L81.353,24.592z"/>
	<path style="fill:#FFFFFF;" d="M23.605,44.924l1.942-8.652c0.092-0.385,0.405-0.515,0.716-0.515h3.702
		c1.834,0,2.953,0.991,2.696,2.498l-0.055,0.313c-0.201,1.139-0.972,1.8-2.108,2.186l1.796,4.17h-1.852
		c-0.404,0-0.568-0.072-0.733-0.404l-1.412-3.473H26.61l-0.88,3.877H23.605z M28.646,39.614c1.045,0,1.594-0.366,1.76-1.157
		l0.037-0.183c0.11-0.552-0.073-1.085-0.972-1.085h-1.98l-0.548,2.425H28.646z"/>
	<path style="fill:#FFFFFF;" d="M37.391,37.961c2.201,0,2.825,0.955,2.825,1.801c0,0.422-0.075,0.826-0.204,1.176
		c-0.347,0.993-1.153,1.322-2.546,1.322h-2.493c-0.111,0.994,0.385,1.324,1.319,1.324h2.733l-0.256,1.046
		c-0.037,0.165-0.129,0.294-0.367,0.294h-2.531c-1.814,0-2.915-0.789-2.915-2.645c0-0.754,0.166-1.323,0.386-1.967
		c0.531-1.524,2.017-2.352,3.739-2.352H37.391z M37.207,40.956c0.478,0,0.753-0.147,0.898-0.495
		c0.075-0.186,0.092-0.313,0.111-0.551c0.02-0.313-0.147-0.662-0.935-0.662h-0.294c-1.063,0-1.576,0.643-1.777,1.708H37.207z"/>
	<path style="fill:#FFFFFF;" d="M47.217,38.531c-0.165,0.623-0.623,0.863-1.283,0.863h-1.688c-0.952,0-1.226,0.239-1.226,0.516
		c0,0.238,0.183,0.365,0.529,0.513l1.302,0.552c1.083,0.459,1.541,1.029,1.541,1.673c0,1.192-0.881,2.276-3.539,2.276h-3.262
		l0.108-0.478c0.111-0.515,0.516-0.954,1.468-0.954h1.761c1.137,0,1.282-0.313,1.282-0.59c0-0.182-0.183-0.348-0.476-0.478
		l-1.744-0.752c-0.641-0.276-1.208-0.717-1.172-1.524c0.075-1.471,1.688-2.096,3.65-2.096h2.877L47.217,38.531z"/>
	<path style="fill:#FFFFFF;" d="M52.24,38.99c-0.054,0.293-0.218,0.404-0.549,0.404h-1.78l-0.678,2.994
		c-0.165,0.717,0.147,1.195,0.845,1.195h1.266l-0.295,1.34h-1.705c-1.65,0-2.513-0.973-2.107-2.7l1.208-5.272
		c0.038-0.184,0.129-0.295,0.349-0.313l1.779-0.129l-0.366,1.543h2.235L52.24,38.99z"/>
	<path style="fill:#FFFFFF;" d="M56.199,38.053c3.081,0,3.046,1.268,2.587,3.234l-0.807,3.472c-0.917,0.147-1.907,0.258-2.952,0.258
		c-1.613,0-2.99-0.515-2.99-2.058c0-1.746,1.45-2.371,2.99-2.371h1.887l0.039-0.203c0.09-0.514,0.127-0.99-0.769-0.99h-2.659
		c-0.149,0-0.258-0.092-0.22-0.258l0.256-1.084H56.199z M56.622,41.856h-1.503c-0.68,0-1.045,0.386-1.045,0.956
		c0,0.697,0.678,0.825,1.247,0.825c0.385,0,0.679-0.054,0.935-0.146L56.622,41.856z"/>
	<path style="fill:#FFFFFF;" d="M67.899,38.053l-1.523,6.651c-1.027,0.163-2.566,0.313-3.943,0.313
		c-2.106,0-3.061-0.974-2.639-2.793l0.954-4.171h2.034l-0.953,4.151c-0.202,0.901-0.056,1.415,1.081,1.415
		c0.587,0,1.175-0.035,1.724-0.127l1.247-5.439H67.899z"/>
	<path style="fill:#FFFFFF;" d="M67.844,44.924c0,0,1.317-5.77,1.484-6.467c0.989-0.312,2.162-0.496,3.408-0.496h1.028l-0.349,1.727
		c-0.33-0.109-0.641-0.184-1.099-0.184c-0.44,0-0.899,0.055-1.23,0.184l-1.211,5.236H67.844z"/>
	<path style="fill:#FFFFFF;" d="M77.375,38.053c3.081,0,3.045,1.268,2.586,3.234l-0.808,3.472c-0.915,0.147-1.905,0.258-2.95,0.258
		c-1.613,0-2.99-0.515-2.99-2.058c0-1.746,1.448-2.371,2.99-2.371h1.887l0.037-0.203c0.092-0.514,0.129-0.99-0.769-0.99h-2.66
		c-0.145,0-0.255-0.092-0.219-0.258l0.256-1.084H77.375z M77.798,41.856h-1.503c-0.679,0-1.046,0.386-1.046,0.956
		c0,0.697,0.678,0.825,1.245,0.825c0.387,0,0.679-0.054,0.936-0.146L77.798,41.856z"/>
	<path style="fill:#FFFFFF;" d="M80.381,44.924l1.522-6.649c1.026-0.165,2.567-0.313,3.942-0.313c2.107,0,3.063,0.975,2.641,2.793
		l-0.955,4.17h-2.034l0.953-4.15c0.202-0.902,0.056-1.417-1.081-1.417c-0.588,0-1.174,0.038-1.724,0.13l-1.246,5.438H80.381z"/>
	<path style="fill:#FFFFFF;" d="M94.39,38.99c-0.057,0.293-0.221,0.404-0.551,0.404h-1.778l-0.679,2.994
		c-0.166,0.717,0.146,1.195,0.844,1.195h1.266l-0.293,1.34h-1.706c-1.65,0-2.513-0.973-2.108-2.7l1.21-5.272
		c0.035-0.184,0.129-0.295,0.348-0.313l1.778-0.129l-0.366,1.543h2.235L94.39,38.99z"/>
	<path style="fill:#FFFFFF;" d="M97.481,35.564c1.208,0,1.825,0.773,1.657,1.87c-0.177,1.128-0.839,1.88-2.236,1.88
		c-1.083,0-1.817-0.817-1.618-1.932C95.48,36.277,96.233,35.564,97.481,35.564 M96.975,38.924c0.994,0,1.516-0.472,1.708-1.504
		c0.159-0.885-0.281-1.481-1.259-1.481c-1.009,0-1.554,0.567-1.692,1.474C95.577,38.4,96.078,38.924,96.975,38.924"/>
	<path style="fill:#FFFFFF;" d="M19.498,43.227c0,0.963-3.884,2.207-8.449,2.207c-4.563,0-8.447-1.244-8.447-2.207
		c0-0.969,3.883-1.846,8.447-1.846C15.614,41.381,19.498,42.258,19.498,43.227"/>
	<path style="fill:#FFFFFF;" d="M19.453,43.225c0,0.958-3.864,2.192-8.404,2.192c-4.539,0-8.402-1.234-8.402-2.192
		c0-0.963,3.863-1.832,8.402-1.832C15.589,41.393,19.453,42.262,19.453,43.225"/>
	<path style="fill:#FFFFFF;" d="M19.408,43.223c0,0.953-3.844,2.179-8.359,2.179c-4.513,0-8.357-1.226-8.357-2.179
		c0-0.959,3.844-1.82,8.357-1.82C15.563,41.402,19.408,42.264,19.408,43.223"/>
	<path style="fill:#FFFFFF;" d="M19.362,43.221c0,0.947-3.823,2.164-8.313,2.164c-4.488,0-8.313-1.217-8.313-2.164
		c0-0.954,3.825-1.809,8.313-1.809C15.539,41.412,19.362,42.267,19.362,43.221"/>
	<path style="fill:#FFFFFF;" d="M19.317,43.219c0,0.943-3.804,2.15-8.269,2.15c-4.462,0-8.268-1.207-8.268-2.15
		c0-0.948,3.805-1.795,8.268-1.795C15.514,41.424,19.317,42.271,19.317,43.219"/>
	<path style="fill:#FFFFFF;" d="M19.273,43.217c0,0.937-3.785,2.137-8.225,2.137c-4.438,0-8.223-1.2-8.223-2.137
		c0-0.942,3.785-1.783,8.223-1.783C15.488,41.434,19.273,42.274,19.273,43.217"/>
	<path style="fill:#FFFFFF;" d="M19.229,43.214c0,0.933-3.767,2.125-8.18,2.125c-4.413,0-8.179-1.192-8.179-2.125
		c0-0.937,3.766-1.77,8.179-1.77C15.462,41.444,19.229,42.277,19.229,43.214"/>
	<path style="fill:#FFFFFF;" d="M19.183,43.212c0,0.927-3.746,2.111-8.135,2.111c-4.388,0-8.133-1.185-8.133-2.111
		c0-0.931,3.746-1.757,8.133-1.757C15.438,41.455,19.183,42.281,19.183,43.212"/>
	<path style="fill:#FFFFFF;" d="M19.14,43.209c0,0.923-3.727,2.098-8.091,2.098c-4.363,0-8.09-1.175-8.09-2.098
		c0-0.925,3.728-1.744,8.09-1.744C15.413,41.465,19.14,42.284,19.14,43.209"/>
	<path style="fill:#FFFFFF;" d="M19.095,43.208c0,0.916-3.707,2.083-8.046,2.083c-4.338,0-8.045-1.167-8.045-2.083
		c0-0.92,3.707-1.733,8.045-1.733C15.388,41.475,19.095,42.288,19.095,43.208"/>
	<path style="fill:#FFFFFF;" d="M19.05,43.205c0,0.911-3.687,2.07-8.002,2.07c-4.313,0-8-1.159-8-2.07c0-0.914,3.688-1.719,8-1.719
		C15.364,41.486,19.05,42.291,19.05,43.205"/>
	<path style="fill:#FFFFFF;" d="M19.006,43.205c0,0.904-3.668,2.055-7.958,2.055c-4.288,0-7.956-1.15-7.956-2.055
		c0-0.912,3.668-1.709,7.956-1.709C15.337,41.496,19.006,42.293,19.006,43.205"/>
	<path style="fill:#FFFFFF;" d="M18.96,43.203c0,0.898-3.646,2.041-7.912,2.041c-4.262,0-7.91-1.143-7.91-2.041
		c0-0.906,3.648-1.695,7.91-1.695C15.314,41.508,18.96,42.297,18.96,43.203"/>
	<path style="fill:#FFFFFF;" d="M18.916,43.2c0,0.896-3.628,2.028-7.868,2.028c-4.238,0-7.866-1.133-7.866-2.028
		c0-0.899,3.628-1.681,7.866-1.681C15.288,41.52,18.916,42.301,18.916,43.2"/>
	<path style="fill:#FFFFFF;" d="M18.871,43.199c0,0.889-3.61,2.014-7.823,2.014s-7.821-1.125-7.821-2.014
		c0-0.896,3.608-1.67,7.821-1.67S18.871,42.304,18.871,43.199"/>
	<path style="fill:#FFFFFF;" d="M18.828,43.197c0,0.885-3.589,2-7.779,2c-4.188,0-7.776-1.115-7.776-2
		c0-0.89,3.588-1.658,7.776-1.658C15.238,41.539,18.828,42.308,18.828,43.197"/>
	<path style="fill:#FFFFFF;" d="M18.782,43.193c0,0.88-3.57,1.986-7.734,1.986c-4.163,0-7.733-1.106-7.733-1.986
		c0-0.883,3.57-1.644,7.733-1.644C15.212,41.55,18.782,42.311,18.782,43.193"/>
	<path style="fill:#FFFFFF;" d="M18.738,43.192c0,0.874-3.55,1.973-7.689,1.973c-4.139,0-7.688-1.099-7.688-1.973
		c0-0.878,3.549-1.633,7.688-1.633C15.188,41.56,18.738,42.314,18.738,43.192"/>
	<path style="fill:#FFFFFF;" d="M18.693,43.189c0,0.871-3.53,1.961-7.645,1.961c-4.112,0-7.643-1.09-7.643-1.961
		c0-0.873,3.531-1.619,7.643-1.619C15.163,41.57,18.693,42.316,18.693,43.189"/>
	<path style="fill:#FFFFFF;" d="M18.649,43.188c0,0.863-3.512,1.946-7.601,1.946c-4.088,0-7.599-1.083-7.599-1.946
		c0-0.867,3.511-1.607,7.599-1.607C15.137,41.58,18.649,42.32,18.649,43.188"/>
	<path style="fill:#FFFFFF;" d="M18.603,43.186c0,0.859-3.49,1.933-7.555,1.933c-4.063,0-7.552-1.073-7.552-1.933
		c0-0.862,3.489-1.594,7.552-1.594C15.113,41.592,18.603,42.323,18.603,43.186"/>
	<path style="fill:#FFFFFF;" d="M18.558,43.184c0,0.853-3.471,1.919-7.51,1.919c-4.037,0-7.509-1.066-7.509-1.919
		c0-0.857,3.472-1.582,7.509-1.582C15.087,41.602,18.558,42.326,18.558,43.184"/>
	<path style="fill:#FFFFFF;" d="M18.514,43.182c0,0.848-3.451,1.905-7.466,1.905c-4.012,0-7.465-1.058-7.465-1.905
		c0-0.851,3.453-1.568,7.465-1.568C15.063,41.613,18.514,42.331,18.514,43.182"/>
	<path style="fill:#FFFFFF;" d="M18.469,43.181c0,0.842-3.432,1.89-7.421,1.89c-3.988,0-7.419-1.048-7.419-1.89
		c0-0.847,3.431-1.558,7.419-1.558C15.038,41.623,18.469,42.334,18.469,43.181"/>
	<path style="fill:#FFFFFF;" d="M18.425,43.178c0,0.837-3.412,1.877-7.377,1.877c-3.962,0-7.376-1.04-7.376-1.877
		c0-0.841,3.414-1.545,7.376-1.545C15.013,41.633,18.425,42.337,18.425,43.178"/>
	<path style="fill:#FFFFFF;" d="M18.38,43.177c0,0.831-3.393,1.862-7.332,1.862c-3.938,0-7.33-1.031-7.33-1.862
		c0-0.836,3.392-1.532,7.33-1.532C14.988,41.645,18.38,42.341,18.38,43.177"/>
	<path style="fill:#FFFFFF;" d="M18.336,43.175c0,0.825-3.373,1.849-7.288,1.849c-3.912,0-7.285-1.023-7.285-1.849
		c0-0.831,3.373-1.52,7.285-1.52C14.963,41.655,18.336,42.344,18.336,43.175"/>
	<path style="fill:#FFFFFF;" d="M18.291,43.172c0,0.822-3.354,1.836-7.242,1.836c-3.888,0-7.241-1.014-7.241-1.836
		c0-0.824,3.353-1.506,7.241-1.506C14.937,41.666,18.291,42.348,18.291,43.172"/>
	<path style="fill:#FFFFFF;" d="M18.246,43.17c0,0.814-3.333,1.821-7.198,1.821c-3.862,0-7.196-1.007-7.196-1.821
		c0-0.818,3.334-1.494,7.196-1.494C14.913,41.676,18.246,42.352,18.246,43.17"/>
	<path style="fill:#FFFFFF;" d="M18.202,43.168c0,0.811-3.315,1.81-7.153,1.81c-3.837,0-7.151-0.999-7.151-1.81
		c0-0.814,3.314-1.482,7.151-1.482C14.886,41.686,18.202,42.354,18.202,43.168"/>
	<path style="fill:#FFFFFF;" d="M18.158,43.166c0,0.805-3.295,1.795-7.109,1.795c-3.812,0-7.106-0.99-7.106-1.795
		c0-0.809,3.294-1.469,7.106-1.469C14.862,41.697,18.158,42.357,18.158,43.166"/>
	<path style="fill:#FFFFFF;" d="M18.113,43.165c0,0.798-3.276,1.78-7.065,1.78c-3.787,0-7.062-0.982-7.062-1.78
		c0-0.806,3.275-1.458,7.062-1.458C14.837,41.707,18.113,42.359,18.113,43.165"/>
	<path style="fill:#FFFFFF;" d="M18.068,43.163c0,0.794-3.255,1.767-7.02,1.767c-3.763,0-7.018-0.973-7.018-1.767
		c0-0.8,3.255-1.445,7.018-1.445C14.813,41.718,18.068,42.363,18.068,43.163"/>
	<path style="fill:#FFFFFF;" d="M18.023,43.16c0,0.79-3.236,1.753-6.975,1.753c-3.737,0-6.974-0.963-6.974-1.753
		c0-0.793,3.236-1.432,6.974-1.432C14.787,41.729,18.023,42.367,18.023,43.16"/>
	<path style="fill:#FFFFFF;" d="M17.979,43.157c0,0.784-3.218,1.74-6.931,1.74c-3.712,0-6.929-0.956-6.929-1.74
		c0-0.788,3.217-1.418,6.929-1.418C14.761,41.739,17.979,42.369,17.979,43.157"/>
	<path style="fill:#FFFFFF;" d="M17.935,43.155c0,0.779-3.197,1.726-6.886,1.726c-3.688,0-6.883-0.946-6.883-1.726
		c0-0.782,3.196-1.407,6.883-1.407C14.738,41.748,17.935,42.373,17.935,43.155"/>
	<path style="fill:#FFFFFF;" d="M17.889,43.154c0,0.773-3.177,1.711-6.841,1.711c-3.662,0-6.839-0.938-6.839-1.711
		c0-0.779,3.177-1.395,6.839-1.395C14.712,41.76,17.889,42.375,17.889,43.154"/>
	<path style="fill:#FFFFFF;" d="M17.845,43.151c0,0.771-3.157,1.7-6.796,1.7c-3.637,0-6.795-0.93-6.795-1.7s3.158-1.382,6.795-1.382
		C14.688,41.77,17.845,42.381,17.845,43.151"/>
	<path style="fill:#FFFFFF;" d="M17.8,43.15c0,0.762-3.138,1.685-6.752,1.685c-3.612,0-6.75-0.923-6.75-1.685
		c0-0.768,3.139-1.369,6.75-1.369C14.663,41.781,17.8,42.383,17.8,43.15"/>
	<path style="fill:#FFFFFF;" d="M17.756,43.148c0,0.757-3.119,1.67-6.708,1.67c-3.587,0-6.705-0.913-6.705-1.67
		c0-0.762,3.118-1.357,6.705-1.357C14.637,41.791,17.756,42.387,17.756,43.148"/>
	<path style="fill:#FFFFFF;" d="M17.711,43.145c0,0.754-3.098,1.658-6.663,1.658c-3.563,0-6.66-0.904-6.66-1.658
		s3.098-1.344,6.66-1.344C14.613,41.801,17.711,42.391,17.711,43.145"/>
	<path style="fill:#FFFFFF;" d="M17.666,43.143c0,0.748-3.079,1.645-6.617,1.645c-3.537,0-6.616-0.896-6.616-1.645
		c0-0.75,3.079-1.329,6.616-1.329C14.586,41.813,17.666,42.393,17.666,43.143"/>
	<path style="fill:#FFFFFF;" d="M17.622,43.141c0,0.742-3.06,1.631-6.574,1.631c-3.512,0-6.57-0.889-6.57-1.631
		c0-0.744,3.059-1.317,6.57-1.317C14.562,41.823,17.622,42.396,17.622,43.141"/>
	<path style="fill:#FFFFFF;" d="M17.577,43.14c0,0.736-3.04,1.617-6.529,1.617c-3.487,0-6.526-0.881-6.526-1.617
		c0-0.74,3.039-1.306,6.526-1.306C14.537,41.834,17.577,42.399,17.577,43.14"/>
	<path style="fill:#FFFFFF;" d="M17.532,43.137c0,0.732-3.021,1.604-6.483,1.604c-3.461,0-6.482-0.871-6.482-1.604
		c0-0.734,3.021-1.293,6.482-1.293C14.511,41.844,17.532,42.402,17.532,43.137"/>
	<path style="fill:#FFFFFF;" d="M17.487,43.137c0,0.725-3,1.587-6.439,1.587c-3.438,0-6.438-0.862-6.438-1.587
		c0-0.73,3-1.282,6.438-1.282C14.487,41.854,17.487,42.406,17.487,43.137"/>
	<path style="fill:#FFFFFF;" d="M17.443,43.133c0,0.721-2.98,1.576-6.395,1.576c-3.411,0-6.393-0.855-6.393-1.576
		c0-0.723,2.982-1.268,6.393-1.268C14.462,41.865,17.443,42.41,17.443,43.133"/>
	<path style="fill:#FFFFFF;" d="M17.397,43.133c0,0.714-2.96,1.561-6.349,1.561c-3.387,0-6.348-0.847-6.348-1.561
		c0-0.719,2.961-1.258,6.348-1.258C14.437,41.875,17.397,42.414,17.397,43.133"/>
	<path style="fill:#FFFFFF;" d="M17.353,43.13c0,0.71-2.941,1.548-6.305,1.548c-3.362,0-6.303-0.838-6.303-1.548
		c0-0.714,2.941-1.245,6.303-1.245C14.412,41.885,17.353,42.416,17.353,43.13"/>
	<path style="fill:#FFFFFF;" d="M17.309,43.128c0,0.704-2.923,1.534-6.261,1.534c-3.335,0-6.259-0.83-6.259-1.534
		c0-0.71,2.923-1.231,6.259-1.231C14.386,41.896,17.309,42.418,17.309,43.128"/>
	<path style="fill:#FFFFFF;" d="M17.264,43.125c0,0.699-2.902,1.521-6.216,1.521c-3.312,0-6.214-0.821-6.214-1.521
		c0-0.703,2.903-1.219,6.214-1.219C14.362,41.906,17.264,42.422,17.264,43.125"/>
	<path style="fill:#FFFFFF;" d="M17.219,43.123c0,0.693-2.883,1.506-6.171,1.506c-3.287,0-6.169-0.813-6.169-1.506
		c0-0.698,2.882-1.205,6.169-1.205C14.336,41.918,17.219,42.425,17.219,43.123"/>
	<path style="fill:#FFFFFF;" d="M17.175,43.121c0,0.688-2.864,1.493-6.127,1.493c-3.261,0-6.126-0.805-6.126-1.493
		c0-0.691,2.865-1.192,6.126-1.192C14.311,41.929,17.175,42.43,17.175,43.121"/>
	<path style="fill:#FFFFFF;" d="M17.13,43.119c0,0.684-2.844,1.479-6.082,1.479c-3.236,0-6.081-0.795-6.081-1.479
		c0-0.688,2.844-1.182,6.081-1.182C14.286,41.938,17.13,42.432,17.13,43.119"/>
	<path style="fill:#FFFFFF;" d="M17.084,43.117c0,0.679-2.823,1.465-6.036,1.465c-3.211,0-6.036-0.786-6.036-1.465
		c0-0.682,2.825-1.168,6.036-1.168C14.262,41.949,17.084,42.436,17.084,43.117"/>
	<path style="fill:#FFFFFF;" d="M17.041,43.116c0,0.673-2.804,1.451-5.992,1.451c-3.187,0-5.992-0.778-5.992-1.451
		c0-0.678,2.805-1.157,5.992-1.157C14.236,41.959,17.041,42.438,17.041,43.116"/>
	<path style="fill:#FFFFFF;" d="M16.996,43.113c0,0.668-2.784,1.438-5.947,1.438c-3.161,0-5.946-0.77-5.946-1.438
		c0-0.671,2.785-1.144,5.946-1.144C14.211,41.97,16.996,42.442,16.996,43.113"/>
	<path style="fill:#FFFFFF;" d="M16.951,43.111c0,0.662-2.765,1.424-5.903,1.424c-3.137,0-5.902-0.762-5.902-1.424
		c0-0.666,2.765-1.131,5.902-1.131C14.187,41.98,16.951,42.445,16.951,43.111"/>
	<path style="fill:#FFFFFF;" d="M16.923,43.111c0,0.66-2.753,1.416-5.875,1.416c-3.122,0-5.875-0.756-5.875-1.416
		c0-0.664,2.75-1.125,5.876-1.125C14.176,41.986,16.923,42.447,16.923,43.111"/>
	<path style="fill:#FFFFFF;" d="M16.896,43.111c0,0.658-2.742,1.407-5.848,1.407s-5.847-0.749-5.847-1.407
		c0-0.662,2.735-1.119,5.849-1.119C14.165,41.992,16.896,42.449,16.896,43.111"/>
	<path style="fill:#FFFFFF;" d="M16.868,43.111c0,0.655-2.729,1.398-5.82,1.398c-3.089,0-5.818-0.743-5.818-1.398
		c0-0.658,2.718-1.113,5.82-1.113C14.154,41.998,16.868,42.453,16.868,43.111"/>
	<path style="fill:#FFFFFF;" d="M16.841,43.111c0,0.654-2.717,1.391-5.793,1.391c-3.073,0-5.79-0.736-5.79-1.391
		c0-0.656,2.702-1.107,5.794-1.107S16.841,42.455,16.841,43.111"/>
	<path style="fill:#FFFFFF;" d="M16.813,43.111c0,0.65-2.706,1.382-5.765,1.382c-3.058,0-5.764-0.731-5.764-1.382
		c0-0.653,2.687-1.102,5.768-1.102C14.132,42.01,16.813,42.458,16.813,43.111"/>
	<path style="fill:#FFFFFF;" d="M16.784,43.111c0,0.648-2.692,1.374-5.736,1.374c-3.042,0-5.734-0.726-5.734-1.374
		c0-0.651,2.67-1.096,5.739-1.096C14.124,42.016,16.784,42.46,16.784,43.111"/>
	<path style="fill:#FFFFFF;" d="M16.757,43.111c0,0.646-2.681,1.365-5.709,1.365c-3.027,0-5.707-0.72-5.707-1.365
		c0-0.649,2.654-1.088,5.711-1.088C14.112,42.023,16.757,42.462,16.757,43.111"/>
	<path style="fill:#FFFFFF;" d="M16.729,43.111c0,0.643-2.667,1.357-5.681,1.357c-3.012,0-5.679-0.715-5.679-1.357
		c0-0.646,2.637-1.082,5.684-1.082C14.102,42.029,16.729,42.465,16.729,43.111"/>
	<path style="fill:#FFFFFF;" d="M16.702,43.111c0,0.641-2.656,1.347-5.653,1.347c-2.996,0-5.652-0.706-5.652-1.347
		c0-0.645,2.623-1.076,5.658-1.076C14.09,42.035,16.702,42.467,16.702,43.111"/>
	<path style="fill:#FFFFFF;" d="M16.674,43.112c0,0.638-2.645,1.339-5.625,1.339s-5.624-0.701-5.624-1.339
		c0-0.644,2.606-1.071,5.63-1.071C14.08,42.041,16.674,42.469,16.674,43.112"/>
	<path style="fill:#FFFFFF;" d="M16.646,43.111c0,0.637-2.632,1.33-5.597,1.33c-2.965,0-5.596-0.693-5.596-1.33
		c0-0.64,2.591-1.064,5.603-1.064C14.07,42.047,16.646,42.472,16.646,43.111"/>
	<path style="fill:#FFFFFF;" d="M16.617,43.112c0,0.632-2.619,1.321-5.569,1.321c-2.949,0-5.568-0.689-5.568-1.321
		c0-0.638,2.574-1.06,5.577-1.06C14.059,42.053,16.617,42.475,16.617,43.112"/>
	<path style="fill:#FFFFFF;" d="M16.59,43.112c0,0.63-2.608,1.313-5.542,1.313c-2.933,0-5.541-0.684-5.541-1.313
		c0-0.636,2.559-1.054,5.549-1.054C14.048,42.059,16.59,42.477,16.59,43.112"/>
	<path style="fill:#FFFFFF;" d="M16.563,43.112c0,0.628-2.596,1.304-5.515,1.304c-2.917,0-5.513-0.676-5.513-1.304
		c0-0.633,2.544-1.048,5.522-1.048C14.037,42.064,16.563,42.479,16.563,43.112"/>
	<path style="fill:#FFFFFF;" d="M16.535,43.112c0,0.626-2.583,1.296-5.486,1.296c-2.901,0-5.485-0.67-5.485-1.296
		c0-0.63,2.528-1.042,5.495-1.042C14.026,42.07,16.535,42.482,16.535,43.112"/>
	<path style="fill:#FFFFFF;" d="M16.507,43.112c0,0.624-2.571,1.289-5.458,1.289c-2.886,0-5.457-0.665-5.457-1.289
		c0-0.628,2.512-1.036,5.468-1.036C14.017,42.076,16.507,42.484,16.507,43.112"/>
	<path style="fill:#FFFFFF;" d="M16.479,43.112c0,0.622-2.559,1.278-5.431,1.278c-2.871,0-5.43-0.656-5.43-1.278
		c0-0.626,2.495-1.03,5.44-1.03C14.006,42.082,16.479,42.486,16.479,43.112"/>
	<path style="fill:#FFFFFF;" d="M16.452,43.112c0,0.62-2.547,1.271-5.403,1.271c-2.855,0-5.402-0.65-5.402-1.271
		c0-0.624,2.48-1.024,5.414-1.024C13.995,42.088,16.452,42.488,16.452,43.112"/>
	<path style="fill:#FFFFFF;" d="M16.423,43.112c0,0.616-2.534,1.263-5.375,1.263c-2.839,0-5.373-0.646-5.373-1.263
		c0-0.62,2.462-1.017,5.386-1.017C13.985,42.096,16.423,42.492,16.423,43.112"/>
	<path style="fill:#FFFFFF;" d="M16.396,43.112c0,0.614-2.522,1.255-5.348,1.255c-2.823,0-5.346-0.641-5.346-1.255
		c0-0.619,2.448-1.011,5.359-1.011C13.974,42.102,16.396,42.493,16.396,43.112"/>
	<path style="fill:#FFFFFF;" d="M16.368,43.112c0,0.611-2.511,1.245-5.319,1.245c-2.808,0-5.317-0.634-5.317-1.245
		c0-0.616,2.431-1.005,5.332-1.005S16.368,42.496,16.368,43.112"/>
	<path style="fill:#FFFFFF;" d="M16.341,43.112c0,0.608-2.499,1.237-5.292,1.237c-2.792,0-5.291-0.629-5.291-1.237
		c0-0.612,2.416-0.999,5.306-0.999C13.952,42.113,16.341,42.5,16.341,43.112"/>
	<path style="fill:#FFFFFF;" d="M16.313,43.112c0,0.608-2.485,1.228-5.264,1.228c-2.776,0-5.262-0.619-5.262-1.228
		c0-0.61,2.4-0.993,5.277-0.993C13.942,42.119,16.313,42.502,16.313,43.112"/>
	<path style="fill:#FFFFFF;" d="M16.284,43.112c0,0.604-2.473,1.22-5.236,1.22c-2.761,0-5.234-0.615-5.234-1.22
		c0-0.608,2.384-0.987,5.25-0.987C13.931,42.125,16.284,42.504,16.284,43.112"/>
	<path style="fill:#FFFFFF;" d="M16.257,43.112c0,0.603-2.461,1.212-5.208,1.212c-2.745,0-5.207-0.609-5.207-1.212
		c0-0.606,2.368-0.981,5.223-0.981C13.92,42.131,16.257,42.506,16.257,43.112"/>
	<path style="fill:#FFFFFF;" d="M16.229,43.112c0,0.6-2.449,1.204-5.18,1.204c-2.73,0-5.179-0.604-5.179-1.204
		c0-0.604,2.352-0.976,5.195-0.976C13.91,42.137,16.229,42.509,16.229,43.112"/>
	<path style="fill:#FFFFFF;" d="M16.201,43.112c0,0.598-2.436,1.195-5.152,1.195c-2.714,0-5.151-0.598-5.151-1.195
		c0-0.603,2.335-0.97,5.168-0.97C13.9,42.143,16.201,42.51,16.201,43.112"/>
	<path style="fill:#FFFFFF;" d="M16.174,43.112c0,0.595-2.425,1.187-5.125,1.187c-2.699,0-5.124-0.592-5.124-1.187
		c0-0.6,2.32-0.964,5.141-0.964C13.888,42.148,16.174,42.513,16.174,43.112"/>
	<path style="fill:#FFFFFF;" d="M16.146,43.112c0,0.593-2.413,1.178-5.097,1.178c-2.683,0-5.095-0.585-5.095-1.178
		c0-0.597,2.304-0.958,5.113-0.958C13.878,42.154,16.146,42.516,16.146,43.112"/>
	<path style="fill:#FFFFFF;" d="M16.118,43.112c0,0.592-2.4,1.17-5.07,1.17c-2.667,0-5.068-0.578-5.068-1.17
		c0-0.594,2.289-0.952,5.088-0.952C13.868,42.16,16.118,42.519,16.118,43.112"/>
	<path style="fill:#FFFFFF;" d="M16.089,43.112c0,0.589-2.387,1.16-5.041,1.16c-2.65,0-5.04-0.571-5.04-1.16
		c0-0.593,2.273-0.946,5.06-0.946C13.857,42.166,16.089,42.52,16.089,43.112"/>
	<path style="fill:#FFFFFF;" d="M16.061,43.112c0,0.586-2.375,1.153-5.013,1.153c-2.637,0-5.013-0.567-5.013-1.153
		c0-0.591,2.257-0.938,5.034-0.938C13.846,42.174,16.061,42.521,16.061,43.112"/>
	<path style="fill:#FFFFFF;" d="M16.035,43.112c0,0.583-2.365,1.145-4.986,1.145c-2.621,0-4.985-0.562-4.985-1.145
		c0-0.587,2.242-0.935,5.006-0.935C13.835,42.178,16.035,42.525,16.035,43.112"/>
	<path style="fill:#FFFFFF;" d="M16.007,43.112c0,0.582-2.352,1.135-4.958,1.135c-2.604,0-4.957-0.553-4.957-1.135
		c0-0.585,2.225-0.928,4.979-0.928C13.825,42.185,16.007,42.527,16.007,43.112"/>
	<path style="fill:#FFFFFF;" d="M15.978,43.112c0,0.579-2.338,1.127-4.93,1.127c-2.589,0-4.929-0.548-4.929-1.127
		c0-0.582,2.208-0.921,4.951-0.921C13.814,42.191,15.978,42.53,15.978,43.112"/>
	<path style="fill:#FFFFFF;" d="M15.952,43.112c0,0.576-2.328,1.12-4.903,1.12c-2.573,0-4.901-0.544-4.901-1.12
		c0-0.58,2.193-0.916,4.924-0.916C13.804,42.196,15.952,42.532,15.952,43.112"/>
	<path style="fill:#FFFFFF;" d="M15.923,43.112c0,0.575-2.315,1.11-4.875,1.11c-2.558,0-4.873-0.535-4.873-1.11
		c0-0.577,2.176-0.909,4.896-0.909S15.923,42.535,15.923,43.112"/>
	<path style="fill:#FFFFFF;" d="M15.895,43.112c0,0.571-2.303,1.101-4.847,1.101c-2.542,0-4.845-0.529-4.845-1.101
		c0-0.575,2.162-0.903,4.869-0.903C13.783,42.209,15.895,42.537,15.895,43.112"/>
	<path style="fill:#FFFFFF;" d="M15.867,43.112c0,0.569-2.29,1.093-4.819,1.093c-2.527,0-4.817-0.523-4.817-1.093
		c0-0.573,2.145-0.897,4.843-0.897S15.867,42.539,15.867,43.112"/>
	<path style="fill:#FFFFFF;" d="M15.84,43.112c0,0.566-2.279,1.085-4.792,1.085c-2.51,0-4.79-0.519-4.79-1.085
		c0-0.571,2.129-0.892,4.816-0.892C13.761,42.221,15.84,42.541,15.84,43.112"/>
	<path style="fill:#FFFFFF;" d="M15.812,43.112c0,0.565-2.266,1.077-4.764,1.077c-2.497,0-4.762-0.512-4.762-1.077
		c0-0.569,2.114-0.886,4.789-0.886C13.751,42.227,15.812,42.543,15.812,43.112"/>
	<path style="fill:#FFFFFF;" d="M15.784,43.112c0,0.562-2.254,1.067-4.736,1.067c-2.48,0-4.735-0.506-4.735-1.067
		c0-0.565,2.098-0.88,4.762-0.88S15.784,42.547,15.784,43.112"/>
	<path style="fill:#FFFFFF;" d="M15.757,43.112c0,0.561-2.244,1.059-4.708,1.059c-2.464,0-4.707-0.498-4.707-1.059
		c0-0.563,2.082-0.873,4.735-0.873C13.729,42.239,15.757,42.549,15.757,43.112"/>
	<path style="fill:#FFFFFF;" d="M15.729,43.112c0,0.558-2.23,1.052-4.68,1.052c-2.448,0-4.678-0.494-4.678-1.052
		c0-0.56,2.064-0.866,4.707-0.866C13.719,42.246,15.729,42.553,15.729,43.112"/>
	<path style="fill:#FFFFFF;" d="M15.701,43.112c0,0.556-2.218,1.042-4.653,1.042c-2.433,0-4.65-0.486-4.65-1.042
		c0-0.558,2.049-0.86,4.679-0.86C13.707,42.252,15.701,42.555,15.701,43.112"/>
	<path style="fill:#FFFFFF;" d="M15.673,43.112c0,0.554-2.207,1.034-4.625,1.034c-2.417,0-4.624-0.48-4.624-1.034
		c0-0.556,2.035-0.854,4.654-0.854C13.697,42.258,15.673,42.557,15.673,43.112"/>
	<path style="fill:#FFFFFF;" d="M15.645,43.112c0,0.55-2.193,1.026-4.597,1.026c-2.402,0-4.595-0.477-4.595-1.026
		c0-0.554,2.017-0.849,4.625-0.849S15.645,42.559,15.645,43.112"/>
	<path style="fill:#FFFFFF;" d="M15.618,43.112c0,0.549-2.182,1.017-4.569,1.017c-2.386,0-4.568-0.468-4.568-1.017
		c0-0.552,2.002-0.843,4.598-0.843C13.676,42.27,15.618,42.561,15.618,43.112"/>
	<path style="fill:#FFFFFF;" d="M15.59,43.112c0,0.545-2.17,1.009-4.542,1.009c-2.37,0-4.54-0.464-4.54-1.009
		c0-0.548,1.985-0.837,4.571-0.837C13.665,42.275,15.59,42.564,15.59,43.112"/>
	<path style="fill:#FFFFFF;" d="M15.561,43.112c0,0.544-2.156,1.001-4.513,1.001c-2.354,0-4.512-0.457-4.512-1.001
		c0-0.547,1.97-0.831,4.544-0.831C13.655,42.281,15.561,42.565,15.561,43.112"/>
	<path style="fill:#FFFFFF;" d="M15.534,43.112c0,0.541-2.144,0.991-4.485,0.991c-2.339,0-4.484-0.45-4.484-0.991
		c0-0.544,1.953-0.824,4.516-0.824C13.645,42.288,15.534,42.568,15.534,43.112"/>
	<path style="fill:#FFFFFF;" d="M15.506,43.112c0,0.54-2.133,0.983-4.458,0.983c-2.322,0-4.456-0.443-4.456-0.983
		c0-0.542,1.937-0.819,4.489-0.819S15.506,42.57,15.506,43.112"/>
	<path style="fill:#FFFFFF;" d="M15.479,43.112c0,0.536-2.121,0.974-4.43,0.974c-2.308,0-4.429-0.438-4.429-0.974
		c0-0.538,1.923-0.813,4.462-0.813C13.623,42.299,15.479,42.574,15.479,43.112"/>
	<path style="fill:#FFFFFF;" d="M15.451,43.112c0,0.534-2.108,0.966-4.402,0.966c-2.292,0-4.401-0.432-4.401-0.966
		c0-0.537,1.907-0.806,4.436-0.806C13.612,42.307,15.451,42.575,15.451,43.112"/>
	<path style="fill:#FFFFFF;" d="M15.423,43.112c0,0.531-2.097,0.958-4.375,0.958c-2.276,0-4.373-0.427-4.373-0.958
		c0-0.534,1.89-0.8,4.408-0.8C13.602,42.313,15.423,42.578,15.423,43.112"/>
	<path style="fill:#FFFFFF;" d="M15.396,43.112c0,0.529-2.084,0.948-4.347,0.948c-2.26,0-4.345-0.419-4.345-0.948
		c0-0.531,1.874-0.794,4.38-0.794C13.591,42.318,15.396,42.581,15.396,43.112"/>
	<path style="fill:#FFFFFF;" d="M15.367,43.112c0,0.526-2.072,0.941-4.319,0.941c-2.245,0-4.318-0.415-4.318-0.941
		c0-0.529,1.859-0.788,4.355-0.788C13.581,42.324,15.367,42.583,15.367,43.112"/>
	<path style="fill:#FFFFFF;" d="M15.312,43.112c0,0.521-2.045,0.928-4.263,0.928c-2.216,0-4.261-0.407-4.261-0.928
		c0-0.522,1.835-0.778,4.296-0.778C13.547,42.334,15.312,42.59,15.312,43.112"/>
	<path style="fill:#FFFFFF;" d="M15.254,43.112c0,0.512-2.019,0.915-4.206,0.915c-2.186,0-4.205-0.403-4.205-0.915
		c0-0.516,1.811-0.769,4.24-0.769C13.513,42.344,15.254,42.597,15.254,43.112"/>
	<path style="fill:#FFFFFF;" d="M15.197,43.112c0,0.505-1.99,0.9-4.148,0.9c-2.157,0-4.146-0.396-4.146-0.9
		c0-0.509,1.785-0.759,4.182-0.759C13.481,42.354,15.197,42.604,15.197,43.112"/>
	<path style="fill:#FFFFFF;" d="M15.141,43.111c0,0.499-1.963,0.889-4.093,0.889c-2.126,0-4.09-0.39-4.09-0.889
		c0-0.502,1.76-0.748,4.125-0.748C13.447,42.363,15.141,42.609,15.141,43.111"/>
	<path style="fill:#FFFFFF;" d="M15.084,43.111c0,0.492-1.937,0.875-4.036,0.875c-2.098,0-4.035-0.383-4.035-0.875
		c0-0.495,1.737-0.737,4.068-0.737C13.414,42.374,15.084,42.616,15.084,43.111"/>
	<path style="fill:#FFFFFF;" d="M15.027,43.111c0,0.486-1.909,0.861-3.979,0.861c-2.068,0-3.977-0.375-3.977-0.861
		c0-0.488,1.712-0.727,4.011-0.727C13.381,42.385,15.027,42.623,15.027,43.111"/>
	<path style="fill:#FFFFFF;" d="M14.97,43.11c0,0.479-1.881,0.849-3.922,0.849c-2.038,0-3.92-0.37-3.92-0.849
		c0-0.48,1.689-0.717,3.954-0.717C13.348,42.394,14.97,42.63,14.97,43.11"/>
	<path style="fill:#FFFFFF;" d="M14.913,43.11c0,0.472-1.853,0.836-3.865,0.836c-2.009,0-3.863-0.364-3.863-0.836
		c0-0.474,1.663-0.706,3.895-0.706C13.314,42.404,14.913,42.637,14.913,43.11"/>
	<path style="fill:#FFFFFF;" d="M14.857,43.11c0,0.465-1.828,0.823-3.809,0.823c-1.979,0-3.807-0.358-3.807-0.823
		c0-0.467,1.638-0.696,3.839-0.696C13.281,42.414,14.857,42.644,14.857,43.11"/>
	<path style="fill:#FFFFFF;" d="M14.8,43.11c0,0.458-1.799,0.812-3.752,0.812c-1.949,0-3.75-0.354-3.75-0.812
		c0-0.459,1.615-0.687,3.782-0.687S14.8,42.651,14.8,43.11"/>
	<path style="fill:#FFFFFF;" d="M14.743,43.11c0,0.45-1.771,0.796-3.694,0.796c-1.92,0-3.693-0.346-3.693-0.796
		c0-0.452,1.589-0.675,3.724-0.675C13.215,42.436,14.743,42.658,14.743,43.11"/>
	<path style="fill:#FFFFFF;" d="M14.687,43.11c0,0.442-1.747,0.784-3.639,0.784c-1.891,0-3.637-0.342-3.637-0.784
		c0-0.447,1.566-0.665,3.668-0.665C13.18,42.445,14.687,42.663,14.687,43.11"/>
	<path style="fill:#FFFFFF;" d="M14.63,43.108c0,0.438-1.718,0.771-3.582,0.771c-1.862,0-3.58-0.333-3.58-0.771
		c0-0.438,1.542-0.653,3.61-0.653C13.147,42.455,14.63,42.67,14.63,43.108"/>
	<path style="fill:#FFFFFF;" d="M14.573,43.108c0,0.431-1.691,0.759-3.525,0.759c-1.832,0-3.523-0.328-3.523-0.759
		s1.517-0.644,3.553-0.644C13.116,42.465,14.573,42.678,14.573,43.108"/>
	<path style="fill:#FFFFFF;" d="M14.516,43.108c0,0.423-1.664,0.745-3.468,0.745c-1.802,0-3.466-0.322-3.466-0.745
		c0-0.425,1.491-0.634,3.497-0.634C13.081,42.475,14.516,42.684,14.516,43.108"/>
	<path style="fill:#FFFFFF;" d="M14.459,43.108c0,0.417-1.637,0.731-3.411,0.731c-1.773,0-3.41-0.314-3.41-0.731
		c0-0.418,1.468-0.622,3.438-0.622C13.049,42.486,14.459,42.69,14.459,43.108"/>
	<path style="fill:#FFFFFF;" d="M14.403,43.108c0,0.409-1.609,0.72-3.354,0.72c-1.743,0-3.352-0.311-3.352-0.72
		c0-0.411,1.442-0.612,3.38-0.612C13.015,42.496,14.403,42.697,14.403,43.108"/>
	<path style="fill:#FFFFFF;" d="M14.347,43.108c0,0.401-1.583,0.704-3.298,0.704c-1.713,0-3.296-0.303-3.296-0.704
		c0-0.405,1.419-0.603,3.325-0.603S14.347,42.703,14.347,43.108"/>
	<path style="fill:#FFFFFF;" d="M14.289,43.108c0,0.395-1.555,0.692-3.241,0.692c-1.685,0-3.239-0.298-3.239-0.692
		c0-0.399,1.395-0.593,3.267-0.593S14.289,42.709,14.289,43.108"/>
	<path style="fill:#FFFFFF;" d="M14.233,43.108c0,0.388-1.527,0.679-3.185,0.679c-1.654,0-3.182-0.291-3.182-0.679
		c0-0.392,1.369-0.582,3.209-0.582S14.233,42.717,14.233,43.108"/>
	<path style="fill:#FFFFFF;" d="M14.176,43.107c0,0.383-1.501,0.666-3.127,0.666c-1.625,0-3.126-0.283-3.126-0.666
		s1.346-0.57,3.153-0.57C12.881,42.537,14.176,42.725,14.176,43.107"/>
	<path style="fill:#FFFFFF;" d="M14.119,43.107c0,0.375-1.473,0.652-3.071,0.652c-1.596,0-3.069-0.277-3.069-0.652
		c0-0.377,1.321-0.561,3.096-0.561C12.849,42.547,14.119,42.73,14.119,43.107"/>
	<path style="fill:#FFFFFF;" d="M14.063,43.107c0,0.368-1.446,0.639-3.015,0.639c-1.566,0-3.012-0.271-3.012-0.639
		c0-0.37,1.296-0.551,3.038-0.551C12.816,42.557,14.063,42.737,14.063,43.107"/>
	<path style="fill:#FFFFFF;" d="M14.007,43.106c0,0.361-1.419,0.628-2.958,0.628c-1.537,0-2.955-0.267-2.955-0.628
		c0-0.362,1.272-0.541,2.981-0.541C12.783,42.565,14.007,42.744,14.007,43.106"/>
	<path style="fill:#FFFFFF;" d="M13.949,43.106c0,0.354-1.392,0.614-2.9,0.614c-1.507,0-2.898-0.26-2.898-0.614
		s1.248-0.529,2.922-0.529C12.75,42.577,13.949,42.752,13.949,43.106"/>
	<path style="fill:#FFFFFF;" d="M13.892,43.105c0,0.348-1.363,0.602-2.844,0.602c-1.478,0-2.842-0.254-2.842-0.602
		s1.224-0.52,2.866-0.52C12.716,42.586,13.892,42.758,13.892,43.105"/>
	<path style="fill:#FFFFFF;" d="M13.835,43.105c0,0.342-1.336,0.589-2.787,0.589c-1.448,0-2.786-0.247-2.786-0.589
		c0-0.341,1.2-0.509,2.81-0.509C12.683,42.597,13.835,42.765,13.835,43.105"/>
	<path style="fill:#FFFFFF;" d="M13.779,43.105c0,0.334-1.31,0.574-2.731,0.574c-1.419,0-2.728-0.24-2.728-0.574
		s1.174-0.498,2.75-0.498C12.649,42.607,13.779,42.771,13.779,43.105"/>
	<path style="fill:#FFFFFF;" d="M13.722,43.105c0,0.326-1.283,0.563-2.674,0.563c-1.389,0-2.672-0.236-2.672-0.563
		c0-0.328,1.15-0.489,2.695-0.489C12.617,42.616,13.722,42.777,13.722,43.105"/>
	<path style="fill:#FFFFFF;" d="M13.665,43.105c0,0.32-1.255,0.549-2.617,0.549c-1.36,0-2.615-0.229-2.615-0.549
		s1.126-0.479,2.637-0.479C12.583,42.627,13.665,42.785,13.665,43.105"/>
	<path style="fill:#FFFFFF;" d="M13.608,43.105c0,0.313-1.227,0.535-2.56,0.535c-1.33,0-2.559-0.223-2.559-0.535
		c0-0.314,1.102-0.469,2.581-0.469C12.55,42.637,13.608,42.791,13.608,43.105"/>
	<path style="fill:#FFFFFF;" d="M13.553,43.105c0,0.305-1.202,0.522-2.504,0.522c-1.301,0-2.502-0.218-2.502-0.522
		c0-0.308,1.078-0.458,2.524-0.458S13.553,42.798,13.553,43.105"/>
	<path style="fill:#FFFFFF;" d="M13.495,43.105c0,0.299-1.173,0.509-2.447,0.509c-1.271,0-2.445-0.21-2.445-0.509
		c0-0.301,1.053-0.447,2.466-0.447S13.495,42.805,13.495,43.105"/>
	<path style="fill:#FFFFFF;" d="M13.438,43.105c0,0.29-1.146,0.494-2.39,0.494c-1.241,0-2.388-0.204-2.388-0.494
		c0-0.293,1.029-0.437,2.409-0.437C12.45,42.669,13.438,42.813,13.438,43.105"/>
	<path style="fill:#FFFFFF;" d="M13.381,43.105c0,0.284-1.119,0.482-2.333,0.482c-1.212,0-2.332-0.198-2.332-0.482
		c0-0.287,1.004-0.428,2.353-0.428C12.416,42.678,13.381,42.818,13.381,43.105"/>
	<path style="fill:#FFFFFF;" d="M13.325,43.104c0,0.278-1.091,0.47-2.277,0.47c-1.182,0-2.274-0.191-2.274-0.47
		s0.979-0.416,2.294-0.416S13.325,42.825,13.325,43.104"/>
	<path style="fill:#FFFFFF;" d="M13.269,43.104c0,0.271-1.064,0.457-2.22,0.457c-1.154,0-2.218-0.186-2.218-0.457
		s0.955-0.404,2.238-0.404S13.269,42.832,13.269,43.104"/>
	<path style="fill:#FFFFFF;" d="M13.212,43.104c0,0.264-1.039,0.443-2.164,0.443c-1.123,0-2.161-0.18-2.161-0.443
		c0-0.265,0.931-0.395,2.179-0.395C12.316,42.709,13.212,42.839,13.212,43.104"/>
	<path style="fill:#FFFFFF;" d="M13.155,43.104c0,0.258-1.011,0.43-2.106,0.43c-1.094,0-2.104-0.172-2.104-0.43
		c0-0.26,0.907-0.385,2.122-0.385C12.283,42.719,13.155,42.844,13.155,43.104"/>
	<path style="fill:#FFFFFF;" d="M13.098,43.104c0,0.25-0.982,0.417-2.049,0.417C9.983,43.521,9,43.354,9,43.104
		c0-0.252,0.881-0.375,2.065-0.375C12.25,42.729,13.098,42.852,13.098,43.104"/>
	<path style="fill:#FFFFFF;" d="M13.041,43.104c0,0.243-0.956,0.402-1.993,0.402c-1.035,0-1.991-0.159-1.991-0.402
		c0-0.244,0.857-0.365,2.008-0.365C12.217,42.738,13.041,42.859,13.041,43.104"/>
	<path style="fill:#FFFFFF;" d="M12.984,43.104c0,0.235-0.928,0.391-1.936,0.391c-1.005,0-1.934-0.155-1.934-0.391
		c0-0.238,0.833-0.354,1.951-0.354C12.184,42.749,12.984,42.865,12.984,43.104"/>
	<path style="fill:#FFFFFF;" d="M12.927,43.104c0,0.229-0.901,0.377-1.879,0.377c-0.975,0-1.878-0.148-1.878-0.377
		c0-0.232,0.809-0.345,1.895-0.345C12.151,42.759,12.927,42.871,12.927,43.104"/>
	<path style="fill:#FFFFFF;" d="M12.872,43.102c0,0.223-0.874,0.366-1.823,0.366c-0.947,0-1.821-0.144-1.821-0.366
		c0-0.224,0.784-0.332,1.836-0.332C12.117,42.77,12.872,42.878,12.872,43.102"/>
	<path style="fill:#FFFFFF;" d="M12.814,43.102c0,0.215-0.846,0.353-1.766,0.353c-0.917,0-1.764-0.138-1.764-0.353
		s0.761-0.322,1.779-0.322C12.084,42.779,12.814,42.887,12.814,43.102"/>
	<path style="fill:#FFFFFF;" d="M12.758,43.102c0,0.209-0.821,0.34-1.71,0.34c-0.889,0-1.708-0.131-1.708-0.34
		s0.736-0.313,1.724-0.313C12.051,42.789,12.758,42.893,12.758,43.102"/>
	<path style="fill:#FFFFFF;" d="M12.701,43.102c0,0.201-0.793,0.326-1.653,0.326c-0.858,0-1.651-0.125-1.651-0.326
		c0-0.203,0.711-0.302,1.666-0.302C12.018,42.8,12.701,42.898,12.701,43.102"/>
	<path style="fill:#FFFFFF;" d="M12.645,43.102c0,0.193-0.766,0.313-1.596,0.313c-0.829,0-1.594-0.119-1.594-0.313
		c0-0.196,0.686-0.292,1.609-0.292C11.984,42.81,12.645,42.905,12.645,43.102"/>
	<path style="fill:#FFFFFF;" d="M12.588,43.102c0,0.187-0.739,0.299-1.54,0.299c-0.8,0-1.538-0.112-1.538-0.299
		c0-0.188,0.663-0.282,1.552-0.282C11.95,42.819,12.588,42.914,12.588,43.102"/>
	<path style="fill:#FFFFFF;" d="M12.53,43.102c0,0.18-0.709,0.286-1.481,0.286c-0.769,0-1.48-0.106-1.48-0.286
		c0-0.182,0.638-0.271,1.493-0.271C11.918,42.83,12.53,42.92,12.53,43.102"/>
	<path style="fill:#FFFFFF;" d="M12.474,43.102c0,0.172-0.685,0.273-1.426,0.273c-0.74,0-1.424-0.102-1.424-0.273
		c0-0.176,0.613-0.263,1.437-0.263C11.884,42.839,12.474,42.926,12.474,43.102"/>
	<path style="fill:#FFFFFF;" d="M12.417,43.1c0,0.167-0.656,0.262-1.368,0.262c-0.71,0-1.367-0.095-1.367-0.262
		s0.588-0.25,1.379-0.25C11.851,42.85,12.417,42.933,12.417,43.1"/>
	<path style="fill:#FFFFFF;" d="M12.36,43.1c0,0.16-0.629,0.248-1.312,0.248c-0.681,0-1.31-0.088-1.31-0.248
		s0.564-0.238,1.322-0.238S12.36,42.939,12.36,43.1"/>
	<path style="fill:#FFFFFF;" d="M12.305,43.1c0,0.154-0.602,0.234-1.256,0.234c-0.651,0-1.253-0.08-1.253-0.234
		c0-0.152,0.54-0.229,1.264-0.229C11.784,42.871,12.305,42.947,12.305,43.1"/>
	<path style="fill:#FFFFFF;" d="M12.247,43.1c0,0.146-0.575,0.221-1.198,0.221c-0.622,0-1.197-0.075-1.197-0.221
		c0-0.146,0.516-0.219,1.208-0.219C11.752,42.881,12.247,42.953,12.247,43.1"/>
	<path style="fill:#FFFFFF;" d="M12.19,43.1c0,0.139-0.547,0.207-1.142,0.207c-0.593,0-1.14-0.068-1.14-0.207
		c0-0.14,0.492-0.208,1.151-0.208C11.719,42.892,12.19,42.96,12.19,43.1"/>
	<path style="fill:#FFFFFF;" d="M12.133,43.1c0,0.133-0.52,0.194-1.085,0.194c-0.563,0-1.083-0.062-1.083-0.194
		s0.466-0.199,1.094-0.199C11.686,42.9,12.133,42.967,12.133,43.1"/>
	<path style="fill:#FFFFFF;" d="M0.834,29.901c0-5.645,4.566-10.22,10.199-10.22c5.632,0,10.198,4.575,10.198,10.22
		c0,5.644-4.566,10.219-10.198,10.219C5.4,40.12,0.834,35.545,0.834,29.901"/>
	<path style="fill:#FFFFFF;" d="M15.383,20.656c1.609,1.586,2.608,3.794,2.608,6.234c0,4.832-3.909,8.749-8.729,8.749
		c-4.003,0-7.377-2.701-8.407-6.384c0.333-5.343,4.761-9.574,10.178-9.574C12.589,19.681,14.063,20.032,15.383,20.656"/>
	<path style="fill:#FFFFFF;" d="M14.846,20.419c1.79,1.566,2.92,3.869,2.92,6.438c0,4.715-3.816,8.541-8.523,8.541
		c-4.092,0-7.509-2.889-8.333-6.743c0.613-5.057,4.912-8.974,10.123-8.974C12.381,19.681,13.667,19.943,14.846,20.419"/>
	<path style="fill:#FFFFFF;" d="M14.295,20.215c1.975,1.525,3.247,3.917,3.247,6.606c0,4.603-3.724,8.335-8.317,8.335
		c-4.174,0-7.629-3.082-8.226-7.097c0.865-4.766,5.028-8.379,10.033-8.379C12.173,19.681,13.271,19.868,14.295,20.215"/>
	<path style="fill:#FFFFFF;" d="M13.74,20.045c2.159,1.461,3.578,3.936,3.578,6.742c0,4.49-3.631,8.129-8.111,8.129
		c-4.25,0-7.735-3.276-8.083-7.444c1.088-4.473,5.111-7.791,9.909-7.791C11.97,19.681,12.877,19.809,13.74,20.045"/>
	<path style="fill:#FFFFFF;" d="M13.164,19.906c2.351,1.373,3.929,3.924,3.929,6.848c0,4.375-3.538,7.922-7.904,7.922
		c-4.322,0-7.832-3.476-7.903-7.79c1.283-4.172,5.162-7.205,9.747-7.205C11.764,19.681,12.477,19.758,13.164,19.906"/>
	<path style="fill:#FFFFFF;" d="M1.472,26.719c0-0.139,0.004-0.275,0.011-0.412c1.451-3.871,5.179-6.626,9.55-6.626
		c0.523,0,1.038,0.04,1.541,0.116c2.544,1.258,4.295,3.885,4.295,6.922c0,4.26-3.446,7.714-7.698,7.714
		C4.917,34.434,1.472,30.979,1.472,26.719"/>
	<path style="fill:#FFFFFF;" d="M1.659,26.685c0-0.324,0.021-0.643,0.06-0.955c1.593-3.565,5.163-6.049,9.313-6.049
		c0.314,0,0.626,0.015,0.933,0.044c2.744,1.113,4.679,3.81,4.679,6.96c0,4.147-3.355,7.508-7.493,7.508S1.659,30.832,1.659,26.685"
		/>
	<path style="fill:#FFFFFF;" d="M1.847,26.65c0-0.515,0.054-1.017,0.154-1.5c1.708-3.252,5.109-5.469,9.031-5.469
		c0.099,0,0.198,0.002,0.297,0.005c2.95,0.934,5.091,3.698,5.091,6.965c0,4.032-3.263,7.302-7.287,7.302S1.847,30.683,1.847,26.65"
		/>
	<path style="fill:#FFFFFF;" d="M2.036,26.616c0-0.716,0.106-1.408,0.303-2.06c1.732-2.823,4.796-4.738,8.315-4.868
		c3.171,0.705,5.542,3.538,5.542,6.928c0,3.918-3.169,7.095-7.08,7.095S2.036,30.534,2.036,26.616"/>
	<path style="fill:#FFFFFF;" d="M2.223,26.581c0-0.935,0.186-1.825,0.523-2.637c1.646-2.297,4.221-3.881,7.174-4.202
		c3.409,0.407,6.052,3.313,6.052,6.839c0,3.805-3.078,6.89-6.875,6.89C5.3,33.471,2.223,30.386,2.223,26.581"/>
	<path style="fill:#FFFFFF;" d="M2.41,26.546c0-1.182,0.308-2.291,0.845-3.255c1.474-1.741,3.521-2.979,5.847-3.427
		c3.673,0.012,6.646,3,6.646,6.682c0,3.69-2.985,6.684-6.669,6.684C5.396,33.229,2.41,30.236,2.41,26.546"/>
	<path style="fill:#FFFFFF;" d="M2.599,26.513c0-1.497,0.508-2.875,1.357-3.972c1.157-1.116,2.577-1.962,4.157-2.434
		c0.309-0.046,0.625-0.069,0.948-0.069c3.567,0,6.461,2.898,6.461,6.475c0,3.578-2.894,6.476-6.461,6.476
		C5.492,32.988,2.599,30.09,2.599,26.513"/>
	<path style="fill:#FFFFFF;" d="M2.786,26.479c0-2.105,1.036-3.967,2.623-5.104c0.313-0.207,0.638-0.398,0.973-0.572
		c0.808-0.381,1.709-0.593,2.66-0.593c3.456,0,6.258,2.806,6.258,6.269c0,3.462-2.802,6.269-6.258,6.269
		C5.588,32.747,2.786,29.94,2.786,26.479"/>
	<path style="fill:#FFFFFF;" d="M2.975,26.444c0-3.349,2.708-6.063,6.05-6.063s6.051,2.714,6.051,6.063s-2.709,6.063-6.051,6.063
		S2.975,29.792,2.975,26.444"/>
	<path style="fill:#FFFFFF;" d="M3.163,26.409c0-3.234,2.616-5.856,5.844-5.856c3.228,0,5.845,2.622,5.845,5.856
		c0,3.235-2.617,5.857-5.845,5.857C5.779,32.266,3.163,29.645,3.163,26.409"/>
	<path style="fill:#FFFFFF;" d="M3.35,26.375c0-3.121,2.524-5.65,5.639-5.65s5.638,2.529,5.638,5.65c0,3.12-2.523,5.65-5.638,5.65
		S3.35,29.496,3.35,26.375"/>
	<path style="fill:#FFFFFF;" d="M3.538,26.34c0-3.006,2.433-5.442,5.431-5.442c3.002,0,5.433,2.436,5.433,5.442
		c0,3.007-2.431,5.443-5.433,5.443C5.971,31.784,3.538,29.347,3.538,26.34"/>
	<path style="fill:#FFFFFF;" d="M3.727,26.307c0-2.894,2.338-5.236,5.225-5.236s5.226,2.343,5.226,5.236
		c0,2.892-2.339,5.237-5.226,5.237S3.727,29.198,3.727,26.307"/>
	<path style="fill:#FFFFFF;" d="M3.914,26.272c0-2.779,2.249-5.031,5.02-5.031c2.773,0,5.021,2.251,5.021,5.031
		c0,2.778-2.247,5.03-5.021,5.03C6.163,31.303,3.914,29.051,3.914,26.272"/>
	<path style="fill:#FFFFFF;" d="M4.102,26.237c0-2.665,2.155-4.824,4.814-4.824c2.659,0,4.813,2.159,4.813,4.824
		c0,2.665-2.155,4.823-4.813,4.823C6.257,31.061,4.102,28.902,4.102,26.237"/>
	<path style="fill:#FFFFFF;" d="M4.289,26.203c0-2.55,2.063-4.618,4.609-4.618c2.544,0,4.608,2.067,4.608,4.618
		c0,2.551-2.064,4.617-4.608,4.617C6.353,30.82,4.289,28.754,4.289,26.203"/>
	<path style="fill:#FFFFFF;" d="M4.478,26.168c0-2.436,1.971-4.41,4.401-4.41c2.431,0,4.402,1.974,4.402,4.41
		c0,2.437-1.971,4.411-4.402,4.411C6.449,30.58,4.478,28.605,4.478,26.168"/>
	<path style="fill:#FFFFFF;" d="M4.666,26.134c0-2.322,1.877-4.204,4.195-4.204c2.317,0,4.196,1.882,4.196,4.204
		c0,2.323-1.878,4.205-4.196,4.205C6.543,30.339,4.666,28.457,4.666,26.134"/>
	<path style="fill:#FFFFFF;" d="M4.853,26.101c0-2.209,1.787-3.998,3.991-3.998c2.202,0,3.989,1.789,3.989,3.998
		c0,2.207-1.787,3.997-3.989,3.997C6.64,30.098,4.853,28.307,4.853,26.101"/>
	<path style="fill:#FFFFFF;" d="M5.041,26.065c0-2.094,1.695-3.79,3.783-3.79c2.09,0,3.783,1.696,3.783,3.79
		c0,2.095-1.693,3.792-3.783,3.792C6.736,29.857,5.041,28.16,5.041,26.065"/>
	<path style="fill:#FFFFFF;" d="M5.229,26.031c0-1.98,1.603-3.584,3.578-3.584c1.976,0,3.578,1.604,3.578,3.584
		c0,1.979-1.603,3.585-3.578,3.585C6.831,29.616,5.229,28.011,5.229,26.031"/>
	<path style="fill:#FFFFFF;" d="M5.417,25.997c0-1.866,1.509-3.378,3.371-3.378c1.863,0,3.372,1.512,3.372,3.378
		s-1.509,3.378-3.372,3.378C6.926,29.375,5.417,27.862,5.417,25.997"/>
	<path style="fill:#FFFFFF;" d="M5.605,25.962c0-1.751,1.417-3.171,3.166-3.171c1.748,0,3.164,1.42,3.164,3.171
		c0,1.752-1.416,3.172-3.164,3.172C7.022,29.134,5.605,27.715,5.605,25.962"/>
	<path style="fill:#FFFFFF;" d="M5.792,25.928c0-1.638,1.325-2.965,2.959-2.965c1.635,0,2.959,1.327,2.959,2.965
		c0,1.637-1.324,2.965-2.959,2.965C7.118,28.894,5.792,27.565,5.792,25.928"/>
	<path style="fill:#FFFFFF;" d="M5.98,25.895c0-1.525,1.234-2.76,2.754-2.76c1.521,0,2.753,1.235,2.753,2.76
		c0,1.523-1.233,2.758-2.753,2.758C7.214,28.653,5.98,27.418,5.98,25.895"/>
	<path style="fill:#FFFFFF;" d="M6.167,25.858c0-1.409,1.142-2.551,2.548-2.551c1.407,0,2.547,1.142,2.547,2.551
		c0,1.411-1.14,2.554-2.547,2.554C7.309,28.412,6.167,27.269,6.167,25.858"/>
	<path style="fill:#FFFFFF;" d="M6.356,25.825c0-1.296,1.048-2.346,2.342-2.346c1.292,0,2.341,1.049,2.341,2.346
		c0,1.295-1.049,2.346-2.341,2.346C7.404,28.171,6.356,27.121,6.356,25.825"/>
	<path style="fill:#FFFFFF;" d="M6.544,25.791c0-1.181,0.956-2.139,2.135-2.139c1.179,0,2.136,0.958,2.136,2.139
		c0,1.181-0.957,2.14-2.136,2.14C7.5,27.931,6.544,26.972,6.544,25.791"/>
	<path style="fill:#FFFFFF;" d="M6.732,25.757c0-1.068,0.864-1.934,1.929-1.934c1.064,0,1.929,0.866,1.929,1.934
		c0,1.067-0.865,1.933-1.929,1.933C7.596,27.689,6.732,26.824,6.732,25.757"/>
	<path style="fill:#FFFFFF;" d="M6.92,25.722c0-0.953,0.771-1.727,1.723-1.727s1.722,0.773,1.722,1.727
		c0,0.954-0.77,1.727-1.722,1.727S6.92,26.676,6.92,25.722"/>
	<path style="fill:#FFFFFF;" d="M7.108,25.687c0-0.838,0.68-1.519,1.517-1.519s1.517,0.681,1.517,1.519
		c0,0.84-0.679,1.522-1.517,1.522S7.108,26.526,7.108,25.687"/>
	<path style="fill:#FFFFFF;" d="M7.294,25.653c0-0.726,0.588-1.314,1.312-1.314c0.724,0,1.311,0.588,1.311,1.314
		s-0.587,1.313-1.311,1.313C7.883,26.966,7.294,26.379,7.294,25.653"/>
	<path style="fill:#FFFFFF;" d="M7.484,25.619c0-0.612,0.494-1.107,1.104-1.107c0.61,0,1.104,0.496,1.104,1.107
		c0,0.611-0.494,1.107-1.104,1.107C7.978,26.727,7.484,26.23,7.484,25.619"/>
	<path style="fill:#FFFFFF;" d="M7.671,25.585c0-0.498,0.402-0.901,0.899-0.901c0.496,0,0.898,0.404,0.898,0.901
		c0,0.497-0.402,0.901-0.898,0.901C8.074,26.486,7.671,26.082,7.671,25.585"/>
	<path style="fill:#FFFFFF;" d="M7.86,25.549c0-0.383,0.31-0.693,0.691-0.693c0.383,0,0.694,0.31,0.694,0.693
		c0,0.384-0.311,0.696-0.694,0.696C8.169,26.245,7.86,25.933,7.86,25.549"/>
	<path style="fill:#FFFFFF;" d="M8.047,25.516c0-0.27,0.218-0.488,0.486-0.488c0.269,0,0.487,0.218,0.487,0.488
		c0,0.269-0.218,0.487-0.487,0.487C8.266,26.003,8.047,25.785,8.047,25.516"/>
	<path style="fill:#FFFFFF;" d="M8.235,25.482c0-0.155,0.126-0.282,0.28-0.282c0.155,0,0.281,0.126,0.281,0.282
		c0,0.153-0.126,0.28-0.281,0.28C8.361,25.763,8.235,25.636,8.235,25.482"/>
	<path style="fill:#FFFFFF;" d="M97.525,36.338h-0.616c-0.234,0-0.345,0.102-0.385,0.271l-0.402,1.777H96.6l0.183-0.797h0.375
		l0.312,0.686c0.035,0.073,0.079,0.111,0.176,0.111h0.426l-0.418-0.856c0.251-0.088,0.403-0.243,0.463-0.509l0.028-0.124
		C98.217,36.543,97.996,36.338,97.525,36.338z M97.636,36.986c-0.044,0.199-0.167,0.287-0.396,0.287h-0.39l0.141-0.613h0.42
		c0.206,0,0.278,0.097,0.242,0.244L97.636,36.986z"/>
</g>
</svg>
