<?xml version="1.0" encoding="utf-8"?>
<!-- Generator: Adobe Illustrator 16.0.0, SVG Export Plug-In . SVG Version: 6.00 Build 0)  -->
<!DOCTYPE svg PUBLIC "-//W3C//DTD SVG 1.1//EN" "http://www.w3.org/Graphics/SVG/1.1/DTD/svg11.dtd">
<svg version="1.1" id="Layer_1" xmlns="http://www.w3.org/2000/svg" xmlns:xlink="http://www.w3.org/1999/xlink" x="0px" y="0px"
	 width="100px" height="65px" viewBox="0 0 100 65" style="enable-background:new 0 0 100 65;" xml:space="preserve">
<g>
	<g>
		<path style="fill:#FFFFFF;" d="M2.392,44.775h0.724l-0.673,2.812c-0.1,0.417-0.081,0.731,0.057,0.94s0.394,0.314,0.768,0.314
			c0.373,0,0.677-0.105,0.916-0.314c0.238-0.209,0.408-0.523,0.508-0.94l0.673-2.812h0.734L5.41,47.656
			c-0.15,0.626-0.417,1.095-0.799,1.406c-0.383,0.312-0.884,0.467-1.505,0.467s-1.047-0.155-1.279-0.467
			c-0.232-0.311-0.272-0.777-0.122-1.406L2.392,44.775z"/>
		<path style="fill:#FFFFFF;" d="M6,49.404l1.153-4.813l2.189,2.83c0.059,0.079,0.118,0.166,0.176,0.256
			c0.058,0.092,0.118,0.192,0.179,0.307l0.769-3.209h0.678l-1.152,4.81l-2.235-2.88c-0.06-0.078-0.116-0.16-0.168-0.247
			c-0.052-0.087-0.1-0.179-0.144-0.271l-0.771,3.219H6V49.404z"/>
		<polygon style="fill:#FFFFFF;" points="11.084,49.404 12.193,44.775 12.926,44.775 11.818,49.404 		"/>
		<polygon style="fill:#FFFFFF;" points="12.873,49.404 13.98,44.775 16.5,44.775 16.347,45.414 14.562,45.414 14.285,46.568 
			16.07,46.568 15.913,47.229 14.127,47.229 13.606,49.404 		"/>
		<polygon style="fill:#FFFFFF;" points="16.199,49.404 17.308,44.775 18.042,44.775 16.934,49.404 		"/>
		<polygon style="fill:#FFFFFF;" points="17.987,49.404 19.096,44.775 21.615,44.775 21.462,45.414 19.677,45.414 19.398,46.574 
			21.184,46.574 21.026,47.236 19.241,47.236 18.883,48.732 20.667,48.732 20.506,49.404 		"/>
		<path style="fill:#FFFFFF;" d="M21.349,49.404l1.108-4.629h0.99c0.644,0,1.088,0.031,1.334,0.101
			c0.246,0.063,0.449,0.179,0.609,0.333c0.212,0.204,0.347,0.466,0.405,0.788c0.057,0.319,0.037,0.687-0.061,1.097
			c-0.099,0.41-0.253,0.775-0.464,1.092c-0.21,0.319-0.471,0.58-0.781,0.789c-0.234,0.153-0.486,0.266-0.754,0.332
			c-0.268,0.065-0.667,0.1-1.2,0.1h-0.197h-0.989V49.404z M22.245,48.727h0.617c0.339,0,0.599-0.022,0.78-0.068
			c0.181-0.049,0.346-0.126,0.498-0.234c0.207-0.15,0.379-0.336,0.517-0.559c0.138-0.223,0.244-0.481,0.314-0.776
			c0.07-0.297,0.089-0.555,0.058-0.776c-0.032-0.223-0.115-0.408-0.25-0.559c-0.102-0.109-0.235-0.188-0.401-0.234
			c-0.168-0.045-0.439-0.069-0.818-0.069h-0.265H23.03L22.245,48.727z"/>
		<path style="fill:#FFFFFF;" d="M29.112,47.328l-0.498,2.076h-0.688l1.109-4.629h1.109c0.329,0,0.567,0.018,0.713,0.056
			c0.146,0.037,0.268,0.099,0.362,0.183c0.116,0.105,0.192,0.252,0.229,0.436c0.036,0.182,0.028,0.383-0.024,0.602
			c-0.052,0.221-0.142,0.422-0.266,0.607c-0.125,0.186-0.27,0.331-0.438,0.438c-0.135,0.084-0.285,0.145-0.448,0.18
			c-0.165,0.035-0.41,0.055-0.739,0.055h-0.145h-0.276V47.328z M29.306,46.712h0.188c0.407,0,0.688-0.046,0.846-0.137
			c0.158-0.091,0.264-0.251,0.319-0.479c0.059-0.248,0.028-0.423-0.092-0.521c-0.121-0.102-0.375-0.153-0.764-0.153h-0.188
			L29.306,46.712z"/>
		<path style="fill:#FFFFFF;" d="M33.924,49.404l-0.227-1.19H31.91l-0.809,1.19H30.33l3.338-4.813l1.03,4.813H33.924z
			 M32.332,47.587h1.258l-0.21-1.058c-0.01-0.066-0.019-0.145-0.027-0.23c-0.008-0.087-0.013-0.186-0.016-0.293
			c-0.049,0.104-0.098,0.196-0.147,0.283c-0.048,0.087-0.096,0.168-0.143,0.24L32.332,47.587z"/>
		<path style="fill:#FFFFFF;" d="M35.75,49.404l0.506-2.117l-0.918-2.512h0.771l0.57,1.57c0.013,0.041,0.029,0.094,0.047,0.16
			c0.018,0.064,0.036,0.135,0.052,0.21c0.047-0.071,0.094-0.143,0.141-0.208c0.047-0.064,0.095-0.126,0.143-0.182l1.343-1.553h0.734
			l-2.155,2.513l-0.507,2.118H35.75L35.75,49.404z"/>
		<path style="fill:#FFFFFF;" d="M42.75,47.119c0-0.035,0.011-0.135,0.032-0.297c0.016-0.135,0.027-0.248,0.036-0.336
			c-0.043,0.105-0.095,0.211-0.155,0.315c-0.059,0.104-0.127,0.214-0.204,0.322l-1.772,2.467l-0.578-2.518
			c-0.024-0.103-0.043-0.203-0.056-0.3c-0.012-0.098-0.021-0.193-0.025-0.287c-0.025,0.097-0.057,0.197-0.096,0.304
			s-0.085,0.218-0.14,0.334l-1.03,2.28h-0.674l2.222-4.827l0.632,2.924c0.009,0.046,0.022,0.123,0.039,0.229
			c0.017,0.107,0.036,0.242,0.058,0.399c0.075-0.133,0.183-0.302,0.325-0.507c0.038-0.057,0.067-0.098,0.086-0.125l2-2.922
			l-0.064,4.826h-0.681L42.75,47.119z"/>
		<polygon style="fill:#FFFFFF;" points="43.969,49.404 45.078,44.775 47.597,44.775 47.444,45.414 45.658,45.414 45.38,46.574 
			47.166,46.574 47.007,47.236 45.222,47.236 44.865,48.732 46.649,48.732 46.488,49.404 		"/>
		<path style="fill:#FFFFFF;" d="M47.33,49.404l1.153-4.813l2.188,2.83c0.06,0.079,0.119,0.166,0.177,0.256
			c0.059,0.092,0.118,0.192,0.178,0.307l0.771-3.209h0.679l-1.15,4.81l-2.237-2.88c-0.06-0.078-0.116-0.16-0.168-0.247
			c-0.052-0.087-0.1-0.179-0.143-0.271l-0.77,3.219H47.33V49.404z"/>
		<polygon style="fill:#FFFFFF;" points="54.814,45.414 53.859,49.404 53.127,49.404 54.081,45.414 52.882,45.414 53.034,44.775 
			56.161,44.775 56.008,45.414 		"/>
		<path style="fill:#FFFFFF;" d="M55.576,48.479l0.652-0.277c0.006,0.207,0.07,0.363,0.191,0.473
			c0.122,0.108,0.299,0.163,0.529,0.163c0.218,0,0.406-0.063,0.563-0.188c0.159-0.123,0.264-0.289,0.313-0.5
			c0.063-0.271-0.097-0.515-0.485-0.727c-0.055-0.031-0.097-0.055-0.126-0.068c-0.438-0.25-0.716-0.476-0.833-0.677
			c-0.117-0.2-0.141-0.446-0.07-0.739c0.09-0.377,0.289-0.683,0.594-0.916c0.307-0.233,0.662-0.353,1.066-0.353
			c0.334,0,0.596,0.067,0.787,0.198c0.193,0.133,0.305,0.32,0.33,0.568l-0.646,0.304c-0.057-0.146-0.131-0.251-0.221-0.32
			c-0.092-0.067-0.207-0.101-0.348-0.101c-0.197,0-0.367,0.054-0.51,0.158c-0.139,0.105-0.231,0.246-0.274,0.424
			c-0.065,0.279,0.127,0.537,0.578,0.776c0.035,0.021,0.063,0.035,0.082,0.046c0.396,0.211,0.651,0.416,0.771,0.618
			c0.119,0.2,0.142,0.451,0.068,0.755c-0.104,0.438-0.322,0.786-0.652,1.045c-0.332,0.258-0.728,0.387-1.185,0.387
			c-0.386,0-0.679-0.092-0.881-0.271S55.57,48.816,55.576,48.479"/>
		<polygon style="fill:#FFFFFF;" points="60.998,49.404 62.105,44.775 62.84,44.775 61.73,49.404 		"/>
		<path style="fill:#FFFFFF;" d="M62.785,49.404l1.152-4.813l2.189,2.83c0.059,0.079,0.117,0.166,0.176,0.256
			c0.059,0.092,0.118,0.192,0.178,0.307l0.771-3.209h0.679l-1.15,4.81l-2.236-2.88c-0.061-0.078-0.115-0.16-0.168-0.247
			s-0.1-0.179-0.143-0.271l-0.771,3.219h-0.676V49.404z"/>
		<polygon style="fill:#FFFFFF;" points="70.271,45.414 69.314,49.404 68.582,49.404 69.536,45.414 68.338,45.414 68.49,44.775 
			71.616,44.775 71.465,45.414 		"/>
		<polygon style="fill:#FFFFFF;" points="71.068,49.404 72.18,44.775 74.695,44.775 74.544,45.414 72.758,45.414 72.48,46.574 
			74.266,46.574 74.107,47.236 72.322,47.236 71.965,48.732 73.749,48.732 73.588,49.404 		"/>
		<path style="fill:#FFFFFF;" d="M75.611,47.334l-0.494,2.07H74.43l1.107-4.629h1.023c0.301,0,0.528,0.021,0.685,0.061
			c0.155,0.04,0.28,0.105,0.376,0.199c0.113,0.111,0.186,0.256,0.221,0.433c0.033,0.179,0.024,0.372-0.025,0.582
			c-0.088,0.371-0.244,0.662-0.471,0.872c-0.227,0.209-0.513,0.336-0.865,0.377l1.052,2.105h-0.831l-1.006-2.07H75.611z
			 M75.8,46.748h0.132c0.391,0,0.657-0.046,0.809-0.139c0.148-0.092,0.254-0.256,0.309-0.493c0.063-0.255,0.036-0.435-0.076-0.539
			c-0.109-0.104-0.352-0.157-0.721-0.157h-0.133L75.8,46.748z"/>
		<polygon style="fill:#FFFFFF;" points="77.966,49.404 79.076,44.775 81.593,44.775 81.439,45.414 79.656,45.414 79.379,46.568 
			81.164,46.568 81.006,47.229 79.221,47.229 78.699,49.404 		"/>
		<path style="fill:#FFFFFF;" d="M84.037,49.404l-0.227-1.19h-1.789l-0.81,1.19h-0.771l3.338-4.813l1.031,4.813H84.037z
			 M82.443,47.587h1.259l-0.21-1.058c-0.012-0.066-0.02-0.145-0.027-0.23c-0.007-0.086-0.014-0.186-0.018-0.293
			c-0.049,0.104-0.098,0.196-0.146,0.283s-0.096,0.168-0.143,0.24L82.443,47.587z"/>
		<path style="fill:#FFFFFF;" d="M89.588,45.9c-0.165-0.182-0.354-0.316-0.563-0.406c-0.207-0.092-0.44-0.137-0.696-0.137
			c-0.492,0-0.933,0.162-1.317,0.486c-0.389,0.325-0.645,0.745-0.768,1.264c-0.12,0.498-0.069,0.912,0.154,1.234
			c0.225,0.325,0.564,0.488,1.021,0.488c0.27,0,0.534-0.049,0.799-0.146c0.264-0.098,0.531-0.242,0.801-0.438l-0.203,0.853
			c-0.231,0.146-0.475,0.254-0.723,0.324c-0.251,0.07-0.51,0.107-0.781,0.107c-0.345,0-0.649-0.059-0.914-0.174
			c-0.268-0.116-0.482-0.287-0.651-0.514c-0.166-0.221-0.272-0.48-0.319-0.783c-0.046-0.299-0.029-0.619,0.053-0.959
			c0.082-0.341,0.218-0.658,0.406-0.955c0.189-0.301,0.424-0.562,0.701-0.787c0.278-0.229,0.577-0.4,0.895-0.519
			c0.318-0.116,0.646-0.176,0.982-0.176c0.266,0,0.51,0.04,0.729,0.12c0.224,0.078,0.428,0.197,0.615,0.357L89.588,45.9z"/>
		<polygon style="fill:#FFFFFF;" points="89.658,49.404 90.768,44.775 93.285,44.775 93.132,45.414 91.348,45.414 91.068,46.574 
			92.854,46.574 92.695,47.236 90.911,47.236 90.553,48.732 92.338,48.732 92.177,49.404 		"/>
		<polygon style="fill:#FFFFFF;" points="76.275,40.74 71.232,40.74 78.247,15.408 83.29,15.408 		"/>
		<path style="fill:#FFFFFF;" d="M73.657,16.209c-0.351-0.482-0.89-0.726-1.621-0.726H44.303l-1.374,4.962h5.046v-0.003h20.184
			l-1.47,5.303H46.506l0.002-0.012h-5.045l-4.186,15.115h5.046l2.811-10.146h22.688c0.707,0,1.376-0.241,2.003-0.725
			c0.625-0.484,1.038-1.081,1.235-1.794l2.81-10.146C74.073,17.303,74.004,16.691,73.657,16.209"/>
		<path style="fill:#FFFFFF;" d="M34.338,39.159c-0.279,1.003-1.192,1.696-2.233,1.696H6.083c-0.709,0-1.236-0.241-1.583-0.726
			c-0.346-0.481-0.42-1.081-0.223-1.793l6.35-22.855h5.048l-5.671,20.415h20.194l5.67-20.415h5.047L34.338,39.159z"/>
		<polygon style="fill:#0B8041;" points="92.001,15.455 98.387,28.154 84.964,40.852 		"/>
		<polygon style="fill:#E87726;" points="87.523,15.455 93.906,28.154 80.477,40.852 		"/>
	</g>
</g>
</svg>
