<svg width="107" height="107" viewBox="0 0 107 107" fill="none" xmlns="http://www.w3.org/2000/svg">
<path fill-rule="evenodd" clip-rule="evenodd" d="M4.52132 31.754H17.9874C18.5474 31.7562 19.0642 32.1478 19.2304 32.6965C22.8684 44.7146 26.3721 55.9496 30.0693 67.9495C31.8746 73.5932 37.1973 77.5408 42.841 77.6228L72.9717 77.9005C74.0986 77.8618 74.406 77.6979 74.9615 77.386C78.2511 75.5306 76.933 70.1692 73.7321 69.5728C73.4293 69.5181 73.3496 69.5227 73.0423 69.5067L42.9343 69.2313C40.6327 69.1971 38.5268 67.5807 37.8188 65.3656C37.5547 64.5051 37.2906 63.6468 37.0266 62.7862L70.1874 62.891C74.2261 62.8523 78.0417 60.4163 79.904 56.7874C83.6034 49.4044 87.2938 41.7346 90.8954 34.2992C91.8174 32.3277 91.888 29.9691 91.0593 27.9634C89.9506 25.2839 87.2414 23.4148 84.3888 23.3419C73.2085 23.2509 62.0281 23.3397 50.8455 23.3397C50.5814 23.351 50.5154 23.3442 50.2536 23.3852C46.9821 23.8815 45.9212 28.3186 47.9155 30.4495C48.9218 31.5263 50.8455 31.7335 50.8455 31.7335H83.0229L72.7008 52.8694C72.2204 53.8278 71.2278 54.4675 70.192 54.4971C58.29 54.7203 46.3856 54.4448 34.4813 54.3856C31.9611 46.0145 29.5525 38.4358 26.9708 30.0875C25.7119 26.1558 22.0306 23.4216 18.0944 23.3601C15.1211 23.3442 12.1456 23.3419 9.1724 23.3442C18.7136 9.25664 34.7864 0 52.99 0C82.2375 0 105.982 23.8906 105.982 53.3201C105.982 82.7474 82.2375 106.638 52.99 106.638C23.7449 106.638 0 82.7474 0 53.3201C0 45.6457 1.61411 38.3493 4.52132 31.754V31.754ZM43.5399 80.5414C48.6281 80.6438 52.9969 86.028 51.87 91.3484C51.039 95.2755 47.3486 98.3512 43.4283 98.3512C38.6452 98.3512 34.3311 93.625 34.8319 88.5414C35.2531 84.2614 39.014 80.6279 43.3168 80.5414C43.4283 80.5414 43.4283 80.5414 43.5399 80.5414ZM71.13 80.5414C76.2159 80.6438 80.5801 86.0326 79.4623 91.3438C78.6404 95.2345 75.0161 98.3011 71.1277 98.3512C65.5204 98.4241 60.6644 91.8037 63.0571 85.9779C64.3844 82.752 67.6536 80.5186 71.13 80.5414V80.5414ZM70.9774 86.1373C69.056 86.176 67.4282 88.2545 67.8972 90.2351C68.3912 92.3205 71.1482 93.477 72.9353 92.0997C74.9751 90.5288 74.2421 86.2374 71.1026 86.1373C71.0594 86.1373 71.0184 86.1373 70.9774 86.1373ZM43.3874 86.1373C41.22 86.1805 39.4853 88.8396 40.5849 90.9841C41.7937 93.345 46.1329 93.1105 46.6019 89.9528C46.8751 88.1225 45.434 86.1987 43.5126 86.1373C43.4716 86.1373 43.4283 86.1373 43.3874 86.1373V86.1373Z" fill="#E91B23"/>
</svg>
