<svg width="37" height="37" viewBox="0 0 37 37" fill="none" xmlns="http://www.w3.org/2000/svg">
<path fill-rule="evenodd" clip-rule="evenodd" d="M1.56345 10.9803H6.21994C6.4136 10.9811 6.5923 11.1165 6.64977 11.3063C7.90777 15.4621 9.11932 19.3471 10.3978 23.4966C11.0221 25.4481 12.8626 26.8132 14.8142 26.8415L25.2332 26.9376C25.6229 26.9242 25.7292 26.8675 25.9213 26.7597C27.0588 26.1181 26.603 24.2641 25.4961 24.0579C25.3914 24.039 25.3639 24.0406 25.2576 24.035L14.8464 23.9398C14.0506 23.928 13.3224 23.369 13.0775 22.6031C12.9862 22.3055 12.8949 22.0087 12.8036 21.7111L24.2704 21.7473C25.667 21.734 26.9864 20.8916 27.6303 19.6368C28.9096 17.0838 30.1857 14.4316 31.4311 11.8605C31.7499 11.1787 31.7743 10.3631 31.4878 9.6696C31.1044 8.74302 30.1676 8.0967 29.1812 8.07151C25.3151 8.04002 21.449 8.07072 17.5821 8.07072C17.4908 8.07466 17.4679 8.0723 17.3774 8.08647C16.2461 8.25809 15.8793 9.7924 16.5689 10.5293C16.9169 10.9016 17.5821 10.9733 17.5821 10.9733H28.7088L25.1395 18.2819C24.9734 18.6134 24.6302 18.8346 24.272 18.8448C20.1563 18.922 16.0399 18.8267 11.9234 18.8062C11.052 15.9116 10.2191 13.2909 9.32636 10.4041C8.89102 9.04453 7.61806 8.09906 6.25694 8.07781C5.22881 8.0723 4.19989 8.07151 3.17177 8.0723C6.47106 3.20089 12.0289 0 18.3237 0C28.4373 0 36.6481 8.26123 36.6481 18.4378C36.6481 28.6136 28.4373 36.8748 18.3237 36.8748C8.21085 36.8748 0 28.6136 0 18.4378C0 15.784 0.558149 13.261 1.56345 10.9803ZM15.0559 27.8508C16.8153 27.8862 18.326 29.748 17.9363 31.5878C17.649 32.9457 16.3729 34.0093 15.0173 34.0093C13.3633 34.0093 11.8715 32.375 12.0447 30.6171C12.1903 29.1371 13.4908 27.8807 14.9787 27.8508C15.0173 27.8508 15.0173 27.8508 15.0559 27.8508ZM24.5963 27.8508C26.355 27.8862 27.8641 29.7496 27.4776 31.5862C27.1934 32.9316 25.9401 33.992 24.5956 34.0093C22.6566 34.0345 20.9774 31.7452 21.8048 29.7307C22.2638 28.6152 23.3942 27.8429 24.5963 27.8508ZM24.5436 29.7858C23.8792 29.7992 23.3163 30.5179 23.4785 31.2028C23.6493 31.9239 24.6026 32.3238 25.2206 31.8476C25.926 31.3044 25.6725 29.8204 24.5869 29.7858C24.5719 29.7858 24.5578 29.7858 24.5436 29.7858ZM15.0031 29.7858C14.2537 29.8007 13.6538 30.7202 14.034 31.4618C14.452 32.2782 15.9525 32.1971 16.1147 31.1052C16.2091 30.4723 15.7108 29.807 15.0464 29.7858C15.0322 29.7858 15.0173 29.7858 15.0031 29.7858Z" fill="white"/>
</svg>
